<svg id="Layer_1" data-name="Layer 1" xmlns="http://www.w3.org/2000/svg" viewBox="0 0 200 130"><defs><style>.cls-1{fill:#2e80ff;}.cls-2{fill:#00a99d;}.cls-3{fill:#c590f4;}.cls-4{fill:#006837;}.cls-5{fill:#f6b6b6;}.cls-6{fill:#df8e8f;}.cls-7{fill:#fff;}.cls-8{fill:#c1272d;}.cls-9{fill:#9e005d;}.cls-10{fill:#ff931e;}</style></defs><path class="cls-1" d="M156.92,13.42c-6.29,2.93-11.28,10.43-12.87,14-1.44,3.19-4,12.56-4,12.56s7.93-2.53,9.55-3.36c7.23-3.74,14.43-11.34,15.69-16C167.07,13.79,163,10.59,156.92,13.42Z"/><path class="cls-2" d="M22.46,95.88c-3.1,1.75-9.39,5.39-7.78,10.5,1.3,4.12,7.26,5.29,10.78,4.48,6.23-1.41,13.79-5.2,21.66-10.72,3.49-2.45,9.8-8.07,9.8-8.07S39.18,88.35,22.46,95.88Z"/><path class="cls-3" d="M179.52,40.78c4.15-3.57,12.79-10,8.35-15.24-3.59-4.25-11.26-.17-15,2.28-6.25,4.07-16.13,11.71-20.27,16.31-1.93,2.14-7,10.77-7,10.77S162.37,54.54,179.52,40.78Z"/><path class="cls-4" d="M138,65.91l-7,1,.58,14.57a2.33,2.33,0,0,1-2.58,2.42L106,81.35a1.65,1.65,0,0,1-1.65-1.65V72.32a.86.86,0,0,0-.86-.85H87.68a.85.85,0,0,0-.85.85V79.7a1.65,1.65,0,0,1-1.65,1.65h-2a17,17,0,0,1-7.66-1.82l-6.72-3.4a6.94,6.94,0,0,1-3.57-4.4L59.26,49.47l-8.19,2.36,4,26.23a3.53,3.53,0,0,0,2.12,2.52,6.58,6.58,0,0,1,1.28.81L71,91.26a6.16,6.16,0,0,1,2.34,4.83v18.67h44.69V101.07a6.19,6.19,0,0,1,6.1-6.18s11.87-.07,12-.06c2.92.26,4.55-.07,5.84-1.93a3.27,3.27,0,0,0,.53-2.47Z"/><path class="cls-5" d="M58.62,49.86l1.16-6.71.6-4.44a.28.28,0,0,0-.53-.16l-1.56,4.3a.74.74,0,0,1-1.31-.2L55.2,34.32a.28.28,0,0,0-.53.11l.14,6.81L51.9,33.09c-.08-.19-.69,0-.65.19l1.41,8.3L49,34.49a.36.36,0,0,0-.63.34l2.48,7.61-3.69-5.11a.25.25,0,0,0-.41.29l2.46,5.53,1.11,4.12a9.78,9.78,0,0,0,1.2,2.34l1.12,1.79Z"/><path class="cls-5" d="M131.18,66.86,127.68,61l-2.16-3.92a.28.28,0,0,1,.44-.34l3,3.44a.73.73,0,0,0,1.15-.64l-1.33-8.42a.27.27,0,0,1,.53-.09l2.32,6.41-.22-8.65c0-.21.64-.27.68-.07L133.76,57l.86-7.93a.36.36,0,0,1,.71.09l.42,8,1.61-6.1a.25.25,0,0,1,.48.13l-.3,6,.45,4.25a9.67,9.67,0,0,1-.28,2.61l-.4,2.07Z"/><path class="cls-5" d="M110.64,45a11.78,11.78,0,0,1-10.35-8.67,11.7,11.7,0,0,1-11.35,8.88h-10v1.81h-.73a2.65,2.65,0,0,0-2.65,2.65v3.89a2.65,2.65,0,0,0,2.65,2.65h.73v7.38A10.62,10.62,0,0,0,89.52,74.24H100a10.62,10.62,0,0,0,10.62-10.62V56.24h.76a2.65,2.65,0,0,0,2.65-2.65V49.7a2.65,2.65,0,0,0-2.65-2.65h-.76V45Z"/><path d="M100.65,29.75h-.09l-.54,0h-.14V33.3a11.89,11.89,0,0,0,.41,3.06,11.49,11.49,0,0,0,.36-2.83Z"/><path class="cls-6" d="M97.38,60.16a2.61,2.61,0,0,1-5.19,0c0-1.29,2.59-8,2.59-8S97.38,58.87,97.38,60.16Z"/><path class="cls-7" d="M103.1,52.48a1.45,1.45,0,0,1,.09.46,1.91,1.91,0,0,1-3.77,0,1.5,1.5,0,0,1,.64-1.19,3.31,3.31,0,0,0-1.44.9,5.39,5.39,0,0,0-1,1.41,12.68,12.68,0,0,0,3,.57,9.52,9.52,0,0,0,4.18-.57A9.54,9.54,0,0,0,103.1,52.48Z"/><path d="M99.42,52.94a1.91,1.91,0,0,0,3.77,0,1.45,1.45,0,0,0-.09-.46,6.49,6.49,0,0,0-.88-.52,3.42,3.42,0,0,0-1-.29,2.68,2.68,0,0,0-1.21.08A1.5,1.5,0,0,0,99.42,52.94Z"/><path class="cls-7" d="M90.08,52.49a1.44,1.44,0,0,1,.09.45,1.91,1.91,0,0,1-3.77,0,1.51,1.51,0,0,1,.65-1.2,3.4,3.4,0,0,0-1.46.91,5.39,5.39,0,0,0-1,1.41,12.68,12.68,0,0,0,3,.57,9.52,9.52,0,0,0,4.18-.57A9.14,9.14,0,0,0,90.08,52.49Z"/><path d="M86.4,52.94a1.91,1.91,0,0,0,3.77,0,1.44,1.44,0,0,0-.09-.45,5.77,5.77,0,0,0-.89-.53,3.42,3.42,0,0,0-1-.29,2.74,2.74,0,0,0-1.19.07A1.51,1.51,0,0,0,86.4,52.94Z"/><path class="cls-8" d="M89.62,65.4a5.6,5.6,0,0,0,10.51,0L97,66.72a4.06,4.06,0,0,1-1,.3,8.52,8.52,0,0,1-2.52,0,4.27,4.27,0,0,1-1.1-.35Z"/><path d="M88.06,63h3.86a2,2,0,0,1,2,2h0"/><path d="M101.51,63H97.65a2,2,0,0,0-2,2h0"/><path d="M92.36,51.45a8.37,8.37,0,0,0-7.73-2.88c5.43-.62,7.88.68,7.88.68Z"/><path d="M97.05,51.45a8.37,8.37,0,0,1,7.73-2.88c-5.43-.62-7.88.68-7.88.68Z"/><path class="cls-8" d="M119.58,52.93c0,3.4-1.4,6.25-4.28,7.16V45.76C118.16,46.68,119.58,49.54,119.58,52.93Z"/><path class="cls-8" d="M70.26,52.93c0,3.4,1.4,6.25,4.28,7.16V45.76C71.67,46.68,70.26,49.54,70.26,52.93Z"/><path class="cls-9" d="M114,45.5h-.86c0-1.79,0-2.64,0-2.82-.69-9.91-6.57-14.94-17.46-14.94-11.76,0-19.14,5.6-19.75,15,0,.17,0,1.11,0,2.79h-.1a5.87,5.87,0,0,0-1.3.26V60.09a6.21,6.21,0,0,0,1.2.26h1.52a1.79,1.79,0,0,0,1.79-1.78V47.28a1.79,1.79,0,0,0-1.11-1.65c0-1.31,0-2.62,0-2.79.54-8.2,7.17-13.1,17.76-13.1,9.79,0,14.48,4.44,15.09,13.23,0,.27-.13,2.27-.16,3.72,0,.53,0,12,0,12a1.82,1.82,0,0,0,1.93,1.67h1.52a6.21,6.21,0,0,0,1.2-.26V45.76A5.87,5.87,0,0,0,114,45.5Z"/><path d="M104.55,30.5a10.63,10.63,0,0,0-3.57-.87c-1.55-3.33-6-5.74-11.16-5.74-6.5,0-13.54,2.47-13.54,10.86a113.54,113.54,0,0,0,1.36,12.1l10.59-1.09.48-.06c5.83-1,10.39-3.88,11.66-9.08.08,0,1.94,8.18,11,8.76l-.24-4.89A10.91,10.91,0,0,0,104.55,30.5Z"/><path class="cls-1" d="M161.46,86.53l16.95,2a3.88,3.88,0,0,1,3.65,5.19h0a3.87,3.87,0,0,1-5.34,2.18Z"/><path class="cls-10" d="M153.78,114.74l-15.52-9,11.13,13.57a3.38,3.38,0,0,0,5.64-1h0A2.86,2.86,0,0,0,153.78,114.74Z"/><path class="cls-1" d="M51.7,23l12,9.55-4.59-13a4.42,4.42,0,0,0-7.73-2.66h0A4.42,4.42,0,0,0,51.7,23Z"/><path class="cls-1" d="M67.82,17.15l6.47,10.74,1-12.49A4.06,4.06,0,0,0,71.08,11h0A4.06,4.06,0,0,0,67.82,17.15Z"/><path class="cls-3" d="M44.25,116.51h0a3.27,3.27,0,0,0,4.65-1.05l12.18-13.65-15.92,8.85A3.27,3.27,0,0,0,44.25,116.51Z"/><path class="cls-2" d="M153.81,63l26.46-13c3.86-1.89,8.6.45,9,4.45h0a5.71,5.71,0,0,1-5.49,6Z"/><path class="cls-10" d="M46.75,71.47l-27.52.8a5.48,5.48,0,0,1-5-7.87h0a5.76,5.76,0,0,1,7.36-3.22Z"/><path class="cls-1" d="M41.28,81.43,20.73,88.72a4.27,4.27,0,0,1-5.37-4.89h0a4.47,4.47,0,0,1,4.87-3.94Z"/><path class="cls-10" d="M124.59,32.92l9.6-10.33c2.65-2.85,2.84-7.4.39-9.19h0c-2.89-2.11-7.37,1-8,5.54Z"/><path class="cls-10" d="M35.63,52.76l-7.5-6.91a3.73,3.73,0,0,0-5-.05h0a3.72,3.72,0,0,0,2.3,6.51Z"/><path class="cls-10" d="M157.83,74.34l22.88-3.57A4.78,4.78,0,0,1,186,75h0a4.78,4.78,0,0,1-6.1,5.12Z"/><path class="cls-3" d="M149.57,99.1,170,104.67a5.11,5.11,0,0,1,3.76,4.7h0a5.1,5.1,0,0,1-8.54,4Z"/><path class="cls-3" d="M108.87,24.26l4.15-9a4.2,4.2,0,0,0-3.17-5.9h0A4.2,4.2,0,0,0,105.3,15Z"/><path class="cls-3" d="M40.91,41.85,34.53,32a4,4,0,0,0-5.71-1.37h0a4,4,0,0,0,.73,6.94Z"/><path class="cls-7" d="M147,30.07l1-1.27,3.17,2.68a3.9,3.9,0,0,1,.78.81,1.07,1.07,0,0,1,.14.68,1.56,1.56,0,0,1-.41.81,5.76,5.76,0,0,1-.86.82l-.75-1a2.44,2.44,0,0,0,.21-.19.41.41,0,0,0,.1-.34,1,1,0,0,0-.37-.45ZM145.72,29l1-1.27.87.73-1,1.27Z"/><path class="cls-7" d="M150.7,27.72l-1.12,1.1a1.85,1.85,0,0,1-.33-.61,1.52,1.52,0,0,1,0-.64,2,2,0,0,1,.25-.6,5.68,5.68,0,0,1,.49-.71,8.91,8.91,0,0,1,.82-.86,1.53,1.53,0,0,1,.74-.35,1.19,1.19,0,0,1,.6.08,1.79,1.79,0,0,1,.56.32l1.45,1.22a1.74,1.74,0,0,0,.82.43l-1,1.18a1,1,0,0,1-.27-.07,1.55,1.55,0,0,1-.24-.13,2.12,2.12,0,0,1-.07.78,2.79,2.79,0,0,1-.51.89,1.66,1.66,0,0,1-1,.67,1.21,1.21,0,0,1-1.35-1,1.91,1.91,0,0,1,.31-1.11c.3-.55.49-.92.57-1.09s.15-.37.22-.57a.6.6,0,0,0-.4-.18.63.63,0,0,0-.38.26,1.14,1.14,0,0,0-.28.55A.68.68,0,0,0,150.7,27.72Zm-2.64-1.41.67-.81.77.65-.67.81Zm4.21.87a6.61,6.61,0,0,1-.29.68,1.66,1.66,0,0,0-.2.66.41.41,0,0,0,.47.4.57.57,0,0,0,.35-.23,1.06,1.06,0,0,0,.22-.48.86.86,0,0,0,0-.46,1.15,1.15,0,0,0-.32-.4ZM149.15,25l.68-.82.77.65-.68.82Z"/><path class="cls-7" d="M151,22.61l1-1.26,4.51,3.81-1.05,1.27Z"/><path class="cls-7" d="M152.79,20.47l1.05-1.27L158.35,23l-1,1.26Z"/><path class="cls-7" d="M160.75,17.41l-2.1,2.53a1,1,0,0,0,.59.21.76.76,0,0,0,.6-.29.89.89,0,0,0,.2-.44,1.08,1.08,0,0,0,0-.39l1.14-1.15a2.38,2.38,0,0,1,.14,1.29,3.28,3.28,0,0,1-.74,1.33,3.16,3.16,0,0,1-1,.88,1.93,1.93,0,0,1-1.1.13,2.31,2.31,0,0,1-1.14-.54,2.17,2.17,0,0,1-.83-1.55,2.48,2.48,0,0,1,.66-1.76,3,3,0,0,1,1.14-.94,1.82,1.82,0,0,1,1.13-.11,3,3,0,0,1,1.23.68Zm-1.67.77a1.06,1.06,0,0,0-.68-.24.79.79,0,0,0-.51.29.76.76,0,0,0-.16.68,1.2,1.2,0,0,0,.32.52Z"/><path class="cls-7" d="M155.54,45l.92,1.31.71-.51.68,1-.72.51.85,1.22c.11.15.19.24.25.26a.27.27,0,0,0,.3-.05,1.58,1.58,0,0,0,.34-.37l.74.84a5.73,5.73,0,0,1-.83.76,1.89,1.89,0,0,1-.81.38.89.89,0,0,1-.61-.14,2.88,2.88,0,0,1-.69-.75l-.85-1.21-.48.34-.67-1,.48-.34-.44-.63Z"/><path class="cls-7" d="M159.79,45.62l-1.34.76a1.74,1.74,0,0,1-.16-.67,1.29,1.29,0,0,1,.16-.6,2.08,2.08,0,0,1,.38-.51,4.34,4.34,0,0,1,.64-.54,6.88,6.88,0,0,1,1-.61,1.5,1.5,0,0,1,.79-.14,1.2,1.2,0,0,1,.55.22,1.75,1.75,0,0,1,.45.45l1.06,1.52a2.46,2.46,0,0,0,.3.35,1.89,1.89,0,0,0,.38.26l-1.23.87a.88.88,0,0,1-.23-.13,1.08,1.08,0,0,1-.2-.19,2.17,2.17,0,0,1-.26.72,2.68,2.68,0,0,1-.71.72,1.63,1.63,0,0,1-1.12.38,1.18,1.18,0,0,1-1-1.29,1.86,1.86,0,0,1,.58-1c.42-.45.69-.75.8-.89a4.73,4.73,0,0,0,.35-.49.57.57,0,0,0-.33-.27.6.6,0,0,0-.42.15,1.26,1.26,0,0,0-.41.45A.77.77,0,0,0,159.79,45.62Zm1.62-.12c-.14.2-.28.39-.44.58a1.53,1.53,0,0,0-.36.57.44.44,0,0,0,.06.32.43.43,0,0,0,.29.18.58.58,0,0,0,.38-.13,1,1,0,0,0,.33-.4.76.76,0,0,0,.09-.45,1.1,1.1,0,0,0-.2-.45Z"/><path class="cls-7" d="M162.24,42.2l1.22-.87.4.56a1.71,1.71,0,0,1,0-.76.92.92,0,0,1,.37-.47,1.59,1.59,0,0,1,.76-.27l.25,1.23a1.21,1.21,0,0,0-.43.16.54.54,0,0,0-.25.5,2.62,2.62,0,0,0,.58,1.27l.81,1.16-1.31.93Z"/><path class="cls-7" d="M167.71,38.3l1.22-.87,2.27,3.25.11.15a1.74,1.74,0,0,1,.29.72,1.49,1.49,0,0,1,0,.73,1.61,1.61,0,0,1-.39.67,4,4,0,0,1-.74.65,2.87,2.87,0,0,1-1.63.7,1.25,1.25,0,0,1-1-.56l-.12-.18,1.37-.76a.49.49,0,0,0,.32.14.68.68,0,0,0,.43-.16.65.65,0,0,0,.32-.45,1,1,0,0,0-.23-.63l-.37-.52a1.76,1.76,0,0,1-.15.61,1.53,1.53,0,0,1-.54.62,1.55,1.55,0,0,1-1.52.19,2.38,2.38,0,0,1-1.09-.92,2.18,2.18,0,0,1-.47-1.5,1.61,1.61,0,0,1,.71-1.14,1.73,1.73,0,0,1,.75-.33,1.78,1.78,0,0,1,.8.1Zm-.07,2.55a1,1,0,0,0,.55.44.64.64,0,0,0,.54-.12.66.66,0,0,0,.28-.47,1.26,1.26,0,0,0-.81-1.13.62.62,0,0,0-.56.1.58.58,0,0,0-.27.47A1.17,1.17,0,0,0,167.64,40.85Z"/><path class="cls-7" d="M175,36.2l-2.61,1.87a1.07,1.07,0,0,0,.5.35.74.74,0,0,0,.65-.13.88.88,0,0,0,.3-.36,1.1,1.1,0,0,0,.07-.37l1.37-.8A2.29,2.29,0,0,1,175,38a3.14,3.14,0,0,1-1,1.08,2.89,2.89,0,0,1-1.2.56,1.85,1.85,0,0,1-1.07-.15,2.3,2.3,0,0,1-.94-.8,2.17,2.17,0,0,1-.41-1.67,2.43,2.43,0,0,1,1.07-1.51,3,3,0,0,1,1.31-.6,1.82,1.82,0,0,1,1.1.19,2.88,2.88,0,0,1,1,.94Zm-1.76.32a1.05,1.05,0,0,0-.59-.4.67.67,0,0,0-.55.14.71.71,0,0,0-.32.6,1.13,1.13,0,0,0,.17.58Z"/><path class="cls-7" d="M174.16,33.7l1.22-.87.35.5a2,2,0,0,1,.22-.82,1.71,1.71,0,0,1,.55-.6,1.56,1.56,0,0,1,.75-.31,1.25,1.25,0,0,1,.69.16,2.55,2.55,0,0,1,.24-.86,1.79,1.79,0,0,1,.54-.57,1.39,1.39,0,0,1,1.09-.28,1.74,1.74,0,0,1,1,.81L182.34,33,181,34l-1.37-2a.66.66,0,0,0-.34-.28.45.45,0,0,0-.45.06.54.54,0,0,0-.25.43,1,1,0,0,0,.24.64l1.24,1.78-1.31.93-1.33-1.9a1.38,1.38,0,0,0-.24-.29.48.48,0,0,0-.29-.1.4.4,0,0,0-.29.09.56.56,0,0,0-.25.44,1,1,0,0,0,.25.66l1.22,1.76-1.31.93Z"/><path class="cls-7" d="M179.83,27.69l1.4-1,.75,1.08,1.25,2.37-.86.61-1.78-2Zm2.56,3.56,1.3-.93.81,1.16-1.3.93Z"/><path class="cls-7" d="M20.11,102.05l1.58-.52,1.33,4a4,4,0,0,1,.25,1.12,1.13,1.13,0,0,1-.24.65,1.62,1.62,0,0,1-.79.48,6.38,6.38,0,0,1-1.18.24l-.14-1.22.29-.06a.35.35,0,0,0,.26-.24,1,1,0,0,0-.08-.58Zm-.51-1.57,1.58-.52.36,1.09-1.58.52Z"/><path class="cls-7" d="M28.42,103.86l-1.47.49-.22-.67a2.32,2.32,0,0,1-.47.8,1.77,1.77,0,0,1-.76.45,1.38,1.38,0,0,1-1.15-.05,1.75,1.75,0,0,1-.77-1.07l-.87-2.62,1.58-.53.75,2.26a.94.94,0,0,0,.33.51.6.6,0,0,0,.46,0,.62.62,0,0,0,.39-.37,1.37,1.37,0,0,0-.08-.84l-.66-2,1.58-.52Z"/><path class="cls-7" d="M27.53,97.85l1.57-.52.7,2.09a2.33,2.33,0,0,1,.48-.69,2,2,0,0,1,.7-.39,1.39,1.39,0,0,1,1.14.06,1.72,1.72,0,0,1,.77,1.07l.87,2.62-1.58.52-.75-2.26a.91.91,0,0,0-.33-.5.6.6,0,0,0-.46,0,.61.61,0,0,0-.39.38,1.34,1.34,0,0,0,.08.83l.66,2-1.58.52Z"/><path class="cls-7" d="M39.07,100.33l-1.48.48-.22-.66a2.17,2.17,0,0,1-.47.8,1.87,1.87,0,0,1-.76.45,1.38,1.38,0,0,1-1.15-.05,1.81,1.81,0,0,1-.77-1.08l-.87-2.61,1.59-.53.75,2.26a.82.82,0,0,0,.32.5.52.52,0,0,0,.46,0,.58.58,0,0,0,.39-.37,1.27,1.27,0,0,0-.08-.83l-.66-2,1.58-.53Z"/><path class="cls-7" d="M44.39,98.56l-1.47.49-.23-.67a2.09,2.09,0,0,1-.47.81,1.87,1.87,0,0,1-.76.45,1.42,1.42,0,0,1-1.15-.06,1.75,1.75,0,0,1-.77-1.07l-.87-2.62,1.59-.52L41,97.63a.85.85,0,0,0,.32.5.53.53,0,0,0,.46,0,.6.6,0,0,0,.39-.37A1.3,1.3,0,0,0,42.1,97l-.65-2L43,94.45Z"/><path class="cls-7" d="M43.49,92.56,45.18,92l.43,1.29L46.15,96l-1,.34-1.18-2.49ZM45,96.82l1.57-.52L47,97.69l-1.57.52Z"/></svg>