<svg id="Layer_1" data-name="Layer 1" xmlns="http://www.w3.org/2000/svg" viewBox="0 0 300 130">
  <defs>
    <style>.cls-1 {
        fill: #f2f2f2;
    }

    .cls-2 {
        fill: #2e80ff;
    }

    .cls-3 {
        fill: #f6b6b6;
    }

    .cls-4 {
        fill: #df8e8f;
    }

    .cls-5 {
        fill: #fbb03b;
    }

    .cls-6 {
        fill: #f7931e;
    }

    .cls-7 {
        fill: #a67c52;
    }

    .cls-8 {
        fill: #df5859;
    }

    .cls-9 {
        fill: #fff;
    }

    .cls-10 {
        fill: #0c9aa9;
    }

    .cls-11 {
        fill: #1d68d6;
    }

    .cls-12 {
        fill: #7c98d8;
    }

    .cls-13 {
        fill: #ccc;
    }

    .cls-14 {
        fill: none;
    }</style>
  </defs>
  <path class="cls-1"
        d="M114.77,52.27a42.73,42.73,0,0,1-5.07-4,21.36,21.36,0,0,1-4.76-6.86C97.15,23.82,75.94,12.9,58.4,11.1c-7.13-.73-24.19-1-37.11,10.55C6.21,35.18,2.78,59.5,14.7,77.42c15.41,23.2,50.07,26,70.94,13.88,8.89-5.17,17.5-14.33,20.87-25.59A27.17,27.17,0,0,1,112,55.55C113.29,54.12,114.77,52.27,114.77,52.27Z"/>
  <path class="cls-1"
        d="M185.79,52.27a41.85,41.85,0,0,0,5.07-4,21.36,21.36,0,0,0,4.76-6.86c7.8-17.57,29-28.49,46.54-30.29,7.14-.73,24.19-1,37.11,10.55,15.08,13.53,18.51,37.85,6.6,55.77-15.42,23.2-50.07,26-70.94,13.88C206,86.13,197.42,77,194.05,65.71a27,27,0,0,0-5.53-10.16C187.27,54.12,185.79,52.27,185.79,52.27Z"/>
  <path class="cls-2"
        d="M160.81,86.86h-2.26a2.86,2.86,0,0,1-2.92-2.74V79.83a2,2,0,0,0-2-2h-12a2,2,0,0,0-2,2v4.29a2.86,2.86,0,0,1-2.91,2.74h-2.27A7.36,7.36,0,0,0,127,94.22v17.21h41.14V94.22A7.36,7.36,0,0,0,160.81,86.86Z"/>
  <rect class="cls-3" x="132.83" y="35.15" width="29.48" height="44.58" rx="10.8"/>
  <path class="cls-4" d="M150.17,67.35a2.75,2.75,0,0,1-5.47,0c0-1.36,2.74-8.47,2.74-8.47S150.17,66,150.17,67.35Z"/>
  <ellipse class="cls-5" cx="156.8" cy="37.87" rx="8.63" ry="9.27" transform="translate(60.91 167.58) rotate(-67.1)"/>
  <path class="cls-5"
        d="M168.63,47.73c0-.14,0-.27,0-.41a4.54,4.54,0,0,0-4.52-4,4.47,4.47,0,0,0-1.79,8.54V68.61a9.78,9.78,0,0,0,2.18.25,10.07,10.07,0,0,0,9.91-10.22A10.32,10.32,0,0,0,169.82,50,2.71,2.71,0,0,1,168.63,47.73Z"/>
  <path class="cls-6"
        d="M137.84,27.36c-7.15,0-13,5-13,11.15a10,10,0,0,0,2.1,6.07,2.68,2.68,0,0,1-1,4,11,11,0,0,0-6.19,9.75c0,6.15,5.37,11.14,12,11.14.39,0,.77,0,1.15,0V48.81a14.7,14.7,0,0,0,4.93.84c7.14,0,12.94-5,12.94-11.14S145,27.36,137.84,27.36Z"/>
  <path class="cls-7" d="M150.13,55.62s4.5-3.68,8.76-1.56C157.26,52.4,152,52.4,150.13,55.62Z"/>
  <path class="cls-7" d="M144.92,55.62s-4.5-3.68-8.77-1.56C137.79,52.4,143,52.4,144.92,55.62Z"/>
  <path class="cls-8"
        d="M142.7,71.72c.89.87,2.7,2.7,4.74,2.7s3.91-1.8,4.74-2.7l-2.61,1a1.91,1.91,0,0,1-.47.12,11.13,11.13,0,0,1-3.26,0,2.09,2.09,0,0,1-.43-.11Z"/>
  <path class="cls-9"
        d="M155.74,55.79a1.53,1.53,0,0,1,.14.64,1.86,1.86,0,0,1-2,1.73,1.88,1.88,0,0,1-2-1.65,5.64,5.64,0,0,0-1,1.49,12.87,12.87,0,0,0,3.17.6,10,10,0,0,0,4.41-.6A8.34,8.34,0,0,0,155.74,55.79Z"/>
  <path class="cls-10"
        d="M153.91,58.16a1.86,1.86,0,0,0,2-1.73,1.53,1.53,0,0,0-.14-.64,3.93,3.93,0,0,0-1-.31,3.22,3.22,0,0,0-2.8,1A1.88,1.88,0,0,0,153.91,58.16Z"/>
  <path class="cls-9"
        d="M142,55.79a1.53,1.53,0,0,1,.14.64,1.86,1.86,0,0,1-2,1.73,1.88,1.88,0,0,1-2-1.65,5.64,5.64,0,0,0-1,1.49,12.87,12.87,0,0,0,3.17.6,10,10,0,0,0,4.41-.6A8.24,8.24,0,0,0,142,55.79Z"/>
  <path class="cls-10"
        d="M140.17,58.16a1.86,1.86,0,0,0,2-1.73,1.53,1.53,0,0,0-.14-.64,3.93,3.93,0,0,0-1-.31,3.23,3.23,0,0,0-2.8,1A1.88,1.88,0,0,0,140.17,58.16Z"/>
  <polygon class="cls-2" points="167.19 92.44 178.34 104.08 164.93 105.86 161.58 95.48 167.19 92.44"/>
  <path class="cls-11"
        d="M177.14,101.21a14.4,14.4,0,0,0-12,1.61,6.91,6.91,0,0,1-5.9,1l-.09,0c-4.73-1.33-9.53.65-11.27,4.48h-3.27v6.9h3.62l38.49.37a3.89,3.89,0,0,0,.16-.44C188.55,109.4,184.18,103.2,177.14,101.21Z"/>
  <rect class="cls-12" x="161.41" y="77.4" width="11.02" height="17.93" rx="2.32"
        transform="translate(21.89 -33.17) rotate(12.14)"/>
  <path class="cls-3"
        d="M173.88,82.65l-5.77,1.73,6.11-2.7c.23-.12.09-.72-.16-.66l-13.47,2.66c-.05,0-11.54,8.89-11.54,8.89L152.73,98,161.09,90a1.26,1.26,0,0,1,.78-.34C164.6,89.53,173,87.9,173,87.9a.42.42,0,0,0-.16-.8l-2.58.19,3.13-1c.31-.1.28-.79-.05-.82l-3,.22,3.79-2.49C174.32,83.11,174.12,82.6,173.88,82.65Z"/>
  <path class="cls-11"
        d="M138.23,123.25a14.19,14.19,0,0,0,7.33-9.63,6.82,6.82,0,0,1,3.48-4.86l.09-.05c4.31-2.38,6.27-7.2,4.75-11.18l2.32-2.32-5-5-2.56,2.56a10.21,10.21,0,0,0-7.83.93,10.33,10.33,0,0,0-4.59,5.07,6.17,6.17,0,0,1-4.3,3.83,15.75,15.75,0,0,0-4.23,1.6c-6.41,3.55-9.27,10.68-6.37,15.93S131.81,126.79,138.23,123.25Z"/>
  <path class="cls-13"
        d="M150.43,17.78a1,1,0,0,1-1,.84h-3.61v-.45a5.43,5.43,0,0,1,.26-1.87,4.26,4.26,0,0,1,.77-1.31,25.19,25.19,0,0,1,2.32-2.08,2.07,2.07,0,0,0,1-1.44,1.34,1.34,0,0,0-.38-1,1.67,1.67,0,0,0-1.17-.36,1.86,1.86,0,0,0-1.39.55,2.48,2.48,0,0,0-.56,1.09,1,1,0,0,1-1.13.74L143,12.16a1,1,0,0,1-.91-1.26A6,6,0,0,1,143.75,8a6.85,6.85,0,0,1,4.93-1.55,7.29,7.29,0,0,1,4.17,1.08A4.48,4.48,0,0,1,155,11.37a3.75,3.75,0,0,1-.56,1.94,9.68,9.68,0,0,1-2.27,2.29,5.91,5.91,0,0,0-1.51,1.52A2.15,2.15,0,0,0,150.43,17.78Zm-3.69,2h2.72a1.05,1.05,0,0,1,1.06,1.05V23a1.06,1.06,0,0,1-1.06,1.06h-2.72A1.06,1.06,0,0,1,145.69,23V20.87A1,1,0,0,1,146.74,19.82Z"/>
  <path class="cls-14"
        d="M119.82,41.29a7.65,7.65,0,0,0-1.21,2.92,3.59,3.59,0,0,0,.1,2,1.81,1.81,0,0,0,1.54,1.19,2.14,2.14,0,0,0,1.68-1,4.2,4.2,0,0,0-.37-5.16,1.14,1.14,0,0,0-.78-.43c-.74,0-1,1.2-1.76,1.25"/>
</svg>
