<svg width="95" height="36" viewBox="0 0 95 36" fill="none" xmlns="http://www.w3.org/2000/svg">
<path d="M41.4679 9.44587V11.9281H41.7358C42.3936 11.9281 42.9052 12.4635 42.9052 13.0962V13.5099C42.9052 13.8262 43.1732 14.0939 43.4899 14.0939H47.3878V12.1958C46.7788 12.1228 46.3403 11.6117 46.3403 11.0033V10.2003C46.3403 9.90824 46.0723 9.64056 45.7799 9.64056H43.4899C42.8321 9.64056 42.2962 9.08084 42.2718 8.42379V7.15835C42.2718 6.86632 42.0282 6.59863 41.7358 6.59863H38.2277V8.2291H40.2741C40.9319 8.2291 41.4679 8.78882 41.4679 9.44587Z" fill="#0072BC"/>
<path d="M40.201 13.9967V12.5122H38.2277V14.5564H39.6651C39.9574 14.5564 40.201 14.313 40.201 13.9967Z" fill="#3E88C8"/>
<path d="M40.8101 9.44594C40.8101 9.15392 40.5665 8.88623 40.2741 8.88623H38.2277V11.9282H40.8101V9.44594Z" fill="#0C3984"/>
<path d="M44.1233 18.158V19.3261C44.1233 19.5938 44.3426 19.7885 44.5862 19.8128H47.3878V14.6781H43.4899C42.8565 14.6781 42.3205 14.1427 42.3205 13.51V13.0963C42.3205 12.7799 42.0525 12.5122 41.7358 12.5122H40.8832V13.9967C40.8588 14.6781 40.3228 15.2134 39.6651 15.2134H38.2277V16.8682H42.8321C43.5386 16.8682 44.1233 17.4523 44.1233 18.158Z" fill="#354E91"/>
<path d="M53.4783 6.08773H51.5294V8.0589C51.5294 8.71596 50.9934 9.25133 50.3356 9.25133H49.8728V11.1008H51.9923C52.2602 11.1008 52.4795 10.8818 52.4795 10.6141V9.44602C52.4795 8.74029 53.0398 8.15624 53.7463 8.15624H55.2811C55.5491 8.15624 55.7684 7.93722 55.7684 7.69387V0.149902H54.6721V4.87097C54.6721 5.55236 54.1361 6.08773 53.4783 6.08773Z" fill="#93D2F3"/>
<path d="M46.8519 4.8953C47.1442 4.8953 47.3878 4.65195 47.3878 4.35992V0.149902H45.585V4.8953H46.8519Z" fill="#93D2F3"/>
<path d="M40.0792 4.55442C40.0792 4.2624 39.8356 4.01904 39.5433 4.01904H38.2277V5.94154H40.0792V4.55442Z" fill="#93D2F3"/>
<path d="M40.737 4.55461V5.94172H41.7358C42.3936 5.94172 42.9539 6.4771 42.9539 7.15849V8.42393C42.9539 8.71595 43.1975 8.98364 43.4899 8.98364H45.7799C46.462 8.98364 46.998 9.54336 46.998 10.2004V11.0035C46.998 11.2955 47.2416 11.5389 47.534 11.5389H49.0688V8.56994C49.0688 8.18058 48.7521 7.86422 48.3866 7.86422H46.2672C45.4388 7.86422 44.7811 7.20716 44.7811 6.37976V3.82454H42.3936C41.7358 3.82454 41.1755 3.28917 41.1755 2.60778V0.149902H39.1047C38.6175 0.149902 38.2277 0.539271 38.2277 1.02598V3.36217H39.5433C40.201 3.36217 40.737 3.89755 40.737 4.55461Z" fill="#4E8FCC"/>
<path d="M53.4783 5.43068C53.7706 5.43068 54.0142 5.18733 54.0142 4.87097V0.149902H51.5293V5.43068H53.4783Z" fill="#4E8FCC"/>
<path d="M57.4737 4.1409H56.5723V6.37976H59.715C59.9099 6.37976 60.1048 6.25808 60.2022 6.0634V1.02598C60.2022 0.539271 59.8124 0.149902 59.3252 0.149902H58.6918V2.92414C58.6918 3.60553 58.1315 4.1409 57.4737 4.1409Z" fill="#3C87C7"/>
<path d="M46.8519 5.57669H45.585V6.37976C45.585 6.74479 45.9017 7.06115 46.2672 7.06115H48.3867C49.215 7.06115 49.8728 7.74254 49.8728 8.56994V8.59428H50.3356C50.628 8.59428 50.8716 8.35092 50.8716 8.0589V0.149902H48.0456V4.35992C48.0456 5.01698 47.5096 5.55236 46.8519 5.57669Z" fill="#4E8FCC"/>
<path d="M56.5723 7.03679V7.69385C56.5723 8.39958 55.9876 8.95929 55.2811 8.95929H53.7463C53.5026 8.95929 53.2834 9.17831 53.2834 9.446V10.6141C53.2834 11.3198 52.6987 11.9039 51.9922 11.9039H49.9458V13.437H53.8194C54.0873 13.437 54.3066 13.218 54.3066 12.9503V11.7822C54.3066 11.0765 54.8669 10.5168 55.5734 10.5168H60.2022V6.93945C60.056 6.98812 59.8855 7.03679 59.7149 7.03679H56.5723Z" fill="#2E4A8E"/>
<path d="M55.8414 16.8198V16.7711C55.8414 16.4548 55.5978 16.2114 55.2811 16.2114H53.3809C53.0885 16.2114 52.8449 16.4548 52.8449 16.7711V17.2092C52.8205 17.8662 52.2846 18.4016 51.6268 18.4016H50.3112V21.2245C50.3112 21.7112 50.701 22.1006 51.1883 22.1006H59.3252C59.8124 22.1006 60.2022 21.7112 60.2022 21.2245V18.0366H57.0595C56.3774 18.0366 55.8414 17.4769 55.8414 16.8198Z" fill="#0C3984"/>
<path d="M57.5955 12.5853C57.5955 12.9016 57.8391 13.145 58.1558 13.145H60.2022V11.3198H57.5955V12.5853Z" fill="#3E88C8"/>
<path d="M57.4737 3.48385C57.766 3.48385 58.034 3.24049 58.034 2.92413V0.149902H56.5723V3.48385H57.4737Z" fill="#93D2F3"/>
<path d="M47.3878 21.2244V20.616H44.5862C43.8797 20.5916 43.3194 20.0319 43.3194 19.3262V18.1581C43.3194 17.8904 43.1001 17.6714 42.8321 17.6714H38.2277V21.2244C38.2277 21.7111 38.6175 22.1004 39.1048 22.1004H46.4864C46.9737 22.1004 47.3878 21.7111 47.3878 21.2244Z" fill="#0C3984"/>
<path d="M42.3936 3.16749H44.7811V0.149902H41.8333V2.60778C41.8333 2.92414 42.1013 3.16749 42.3936 3.16749Z" fill="#4B8DCB"/>
<path d="M56.9377 12.5853V11.3198H55.5734C55.3298 11.3198 55.1105 11.5388 55.1105 11.7822V12.9503C55.1105 13.656 54.5259 14.2401 53.8194 14.2401H50.3112V17.7444H51.6268C51.9191 17.7444 52.1628 17.501 52.1628 17.209V16.771C52.1871 16.0896 52.7231 15.5542 53.3809 15.5542H55.2811C55.9632 15.5542 56.4992 16.0896 56.4992 16.771V16.8196C56.4992 17.1116 56.7428 17.355 57.0595 17.3793H60.2022V13.802H58.1558C57.4737 13.802 56.9377 13.2667 56.9377 12.5853Z" fill="#0072BC"/>
<path d="M0.150002 28.1357H4.60824V29.0118H1.12448V31.3967H4.36462V32.2728H1.12448V34.8523H4.6326V35.7284H0.150002V28.1357Z" fill="#0C3984"/>
<path d="M8.23812 35.0225C8.79845 35.0225 9.38313 34.9252 9.99218 34.7548L10.114 35.5092C9.60239 35.7039 8.84717 35.8499 8.16503 35.8499C6.50842 35.8499 5.9481 35.0469 5.9481 33.8058V32.1266C5.9481 30.9828 6.48406 30.0581 8.14067 30.0581C9.77292 30.0581 10.2358 31.0072 10.2358 32.1509V33.319H6.92258V33.7814C6.92258 34.6575 7.16619 35.0225 8.23812 35.0225ZM6.92258 32.516H9.31005V32.0779C9.31005 31.2992 9.04206 30.8612 8.14067 30.8612C7.23928 30.8612 6.92258 31.2992 6.92258 32.0779V32.516Z" fill="#0C3984"/>
<path d="M13.2811 35.8499C12.6964 35.8499 11.9412 35.7039 11.5027 35.5336L11.6245 34.7792C12.1117 34.9252 12.7452 35.0225 13.208 35.0225C14.0851 35.0225 14.2312 34.8522 14.2312 34.2681C14.2312 33.6841 14.1825 33.6111 13.0862 33.3434C11.6976 32.9784 11.5758 32.7107 11.5758 31.5426C11.5758 30.5205 12.0143 30.0581 13.476 30.0581C14.012 30.0581 14.5967 30.1311 15.0595 30.2528L14.9865 31.0315C14.5236 30.9585 13.9145 30.8855 13.4517 30.8855C12.6233 30.8855 12.5259 31.0802 12.5259 31.5669C12.5259 32.1996 12.5259 32.297 13.4517 32.5403C15.0595 32.9297 15.1814 33.1244 15.1814 34.2195C15.1814 35.3146 14.8646 35.8499 13.2811 35.8499Z" fill="#0C3984"/>
<path d="M19.6396 35.6308C19.2985 35.7525 18.8843 35.8498 18.4702 35.8498C17.5444 35.8498 17.0816 35.4848 17.0816 34.5844V30.9828H16.1071V30.1797H17.0816V28.8169L18.056 28.6709V30.1797H19.6152L19.5421 30.9828H18.056V34.4141C18.056 34.8278 18.1048 35.0224 18.6164 35.0224C18.8843 35.0224 19.1523 34.9738 19.5178 34.9008L19.6396 35.6308Z" fill="#0C3984"/>
<path d="M21.9052 29.2793H20.9551V27.9165H21.9052V29.2793ZM21.9052 35.7282H20.9551V30.1797H21.9052V35.7282Z" fill="#0C3984"/>
<path d="M27.2161 35.7284H26.2417V28.1357H27.2161V35.7284ZM28.5561 31.8591L31.5769 35.7284H30.4076L27.4598 31.8591L30.1883 28.1357H31.3577L28.5561 31.8591Z" fill="#0C3984"/>
<path d="M34.5734 35.0225C35.1337 35.0225 35.7184 34.9252 36.3275 34.7548L36.4493 35.5092C35.9377 35.7039 35.1825 35.8499 34.5003 35.8499C32.8437 35.8499 32.2834 35.0469 32.2834 33.8058V32.1266C32.2834 30.9828 32.8193 30.0581 34.476 30.0581C36.1082 30.0581 36.5711 31.0072 36.5711 32.1509V33.319H33.2579V33.7814C33.2579 34.6575 33.5015 35.0225 34.5734 35.0225ZM33.2579 32.516H35.6453V32.0779C35.6453 31.2992 35.3774 30.8612 34.476 30.8612C33.5746 30.8612 33.2579 31.2992 33.2579 32.0779V32.516Z" fill="#0C3984"/>
<path d="M40.0549 35.0225C40.6152 35.0225 41.2242 34.9252 41.8089 34.7548L41.9551 35.5092C41.4191 35.7039 40.6883 35.8499 39.9818 35.8499C38.3495 35.8499 37.7892 35.0469 37.7892 33.8058V32.1266C37.7892 30.9828 38.3008 30.0581 39.9574 30.0581C41.5897 30.0581 42.0526 31.0072 42.0526 32.1509V33.319H38.7393V33.7814C38.7393 34.6575 38.983 35.0225 40.0549 35.0225ZM38.7393 32.516H41.1268V32.0779C41.1268 31.2992 40.8588 30.8612 39.9574 30.8612C39.056 30.8612 38.7393 31.2992 38.7393 32.0779V32.516Z" fill="#0C3984"/>
<path d="M43.563 35.7282V27.9165L44.5131 27.7705V35.7282H43.563Z" fill="#0C3984"/>
<path d="M48.3379 35.0225C48.8739 35.0225 49.4829 34.9252 50.092 34.7548L50.2138 35.5092C49.6778 35.7039 48.947 35.8499 48.2405 35.8499C46.6082 35.8499 46.0479 35.0469 46.0479 33.8058V32.1266C46.0479 30.9828 46.5838 30.0581 48.2161 30.0581C49.8727 30.0581 50.3112 31.0072 50.3112 32.1509V33.319H46.998V33.7814C46.998 34.6575 47.2416 35.0225 48.3379 35.0225ZM46.998 32.516H49.3855V32.0779C49.3855 31.2992 49.1175 30.8612 48.2161 30.8612C47.3147 30.8612 46.998 31.2992 46.998 32.0779V32.516Z" fill="#0C3984"/>
<path d="M54.3797 35.7284H55.3786V28.1357H54.3797V35.7284Z" fill="#0C3984"/>
<path d="M60.6651 35.7282V31.4939C60.6651 31.1289 60.4702 30.9828 60.1291 30.9828C59.715 30.9828 58.8623 31.2262 58.2533 31.5426V35.7282H57.3032V30.1798H58.0827L58.1802 30.6665C58.7892 30.3501 59.7394 30.0581 60.4215 30.0581C61.2985 30.0581 61.6152 30.6178 61.6152 31.4696V35.7282H60.6651Z" fill="#0C3984"/>
<path d="M64.9284 35.8499C64.3438 35.8499 63.6129 35.7039 63.15 35.5336L63.2718 34.7792C63.7591 34.9252 64.3925 35.0225 64.8797 35.0225C65.7568 35.0225 65.9029 34.8522 65.9029 34.2681C65.9029 33.6841 65.8542 33.6111 64.7336 33.3434C63.3449 32.9784 63.2231 32.7107 63.2231 31.5426C63.2231 30.5205 63.686 30.0581 65.1477 30.0581C65.6837 30.0581 66.2684 30.1311 66.7069 30.2528L66.6581 31.0315C66.1709 30.9585 65.5619 30.8855 65.099 30.8855C64.295 30.8855 64.1732 31.0802 64.1732 31.5669C64.1732 32.1996 64.1732 32.297 65.1233 32.5403C66.7069 32.9297 66.853 33.1244 66.853 34.2195C66.853 35.3146 66.512 35.8499 64.9284 35.8499Z" fill="#0C3984"/>
<path d="M71.2869 35.6308C70.9458 35.7525 70.5317 35.8498 70.1175 35.8498C69.1918 35.8498 68.7532 35.4848 68.7532 34.5844V30.9828H67.7544V30.1797H68.7532V28.8169L69.7034 28.6709V30.1797H71.2869L71.1894 30.9828H69.7034V34.4141C69.7034 34.8278 69.7521 35.0224 70.2637 35.0224C70.5317 35.0224 70.824 34.9738 71.1651 34.9008L71.2869 35.6308Z" fill="#0C3984"/>
<path d="M73.5525 29.2793H72.6024V27.9165H73.5525V29.2793ZM73.5525 35.7282H72.6024V30.1797H73.5525V35.7282Z" fill="#0C3984"/>
<path d="M78.2788 35.6308C77.9377 35.7525 77.5236 35.8498 77.1094 35.8498C76.1837 35.8498 75.7451 35.4848 75.7451 34.5844V30.9828H74.7463V30.1797H75.7451V28.8169L76.6953 28.6709V30.1797H78.2788L78.1813 30.9828H76.6953V34.4141C76.6953 34.8278 76.744 35.0224 77.2556 35.0224C77.5236 35.0224 77.7915 34.9738 78.157 34.9008L78.2788 35.6308Z" fill="#0C3984"/>
<path d="M80.4957 30.1797V34.414C80.4957 34.7791 80.6662 34.9251 81.0316 34.9251C81.4458 34.9251 82.2985 34.6817 82.8832 34.3654V30.1797H83.8576V35.7282H83.078L82.9806 35.2415C82.3715 35.5335 81.3971 35.8498 80.7393 35.8498C79.8623 35.8498 79.5456 35.2901 79.5456 34.414V30.1797H80.4957Z" fill="#0C3984"/>
<path d="M86.5862 30.1797V34.414C86.5862 34.7791 86.7567 34.9251 87.1222 34.9251C87.512 34.9251 88.3646 34.6817 88.9737 34.3654V30.1797H89.9238V35.7282H89.1442L89.0711 35.2415C88.4377 35.5335 87.4876 35.8498 86.8298 35.8498C85.9284 35.8498 85.6117 35.2901 85.6117 34.414V30.1797H86.5862Z" fill="#0C3984"/>
<path d="M94.6499 35.6308C94.3089 35.7525 93.8947 35.8498 93.4806 35.8498C92.5548 35.8498 92.1163 35.4848 92.1163 34.5844V30.9828H91.1175V30.1797H92.1163V28.8169L93.0664 28.6709V30.1797H94.6499L94.5525 30.9828H93.0664V34.4141C93.0664 34.8278 93.1152 35.0224 93.6268 35.0224C93.8947 35.0224 94.1627 34.9738 94.5281 34.9008L94.6499 35.6308Z" fill="#0C3984"/>
</svg>
