<?xml version="1.0" standalone="no"?>
<!DOCTYPE svg PUBLIC "-//W3C//DTD SVG 20010904//EN"
 "http://www.w3.org/TR/2001/REC-SVG-20010904/DTD/svg10.dtd">
<svg version="1.0" xmlns="http://www.w3.org/2000/svg"
 width="591.000000pt" height="298.000000pt" viewBox="0 0 591.000000 298.000000"
 preserveAspectRatio="xMidYMid meet">

<g transform="translate(0.000000,298.000000) scale(0.100000,-0.100000)"
fill="#000000" stroke="none">
<path d="M2935 2446 c-86 -38 -100 -149 -25 -195 17 -10 68 -28 114 -40 94
-25 119 -45 118 -93 -1 -50 -40 -78 -105 -78 -66 0 -111 26 -128 74 -11 30
-18 36 -41 36 -33 0 -35 -10 -7 -66 31 -65 77 -89 169 -89 116 1 170 42 170
130 0 79 -37 110 -165 140 -78 18 -110 35 -117 62 -22 84 126 124 187 51 14
-16 25 -36 25 -44 0 -9 11 -14 31 -14 27 0 30 3 24 23 -14 44 -41 80 -75 98
-41 22 -130 25 -175 5z"/>
<path d="M730 1990 l0 -460 260 0 260 0 0 -30 c0 -52 -30 -182 -55 -237 -61
-135 -197 -216 -402 -239 l-63 -7 0 -192 0 -193 63 5 c34 3 107 14 162 25 407
80 633 343 675 786 5 59 10 308 10 555 l0 447 -455 0 -455 0 0 -460z"/>
<path d="M2090 2225 l0 -225 165 0 165 0 0 25 0 25 -135 0 -135 0 0 80 0 80
120 0 120 0 0 25 0 25 -120 0 -120 0 0 70 0 70 130 0 130 0 0 25 0 25 -160 0
-160 0 0 -225z"/>
<path d="M2480 2225 l0 -225 165 0 165 0 0 25 0 25 -135 0 -135 0 0 80 0 80
120 0 120 0 0 25 0 25 -120 0 -120 0 0 70 0 70 130 0 130 0 0 25 0 25 -160 0
-160 0 0 -225z"/>
<path d="M3230 2425 c0 -24 2 -25 75 -25 l75 0 0 -200 0 -200 30 0 30 0 0 200
0 199 73 3 c66 3 72 5 75 26 l3 22 -180 0 -181 0 0 -25z"/>
<path d="M3640 2225 l0 -225 30 0 30 0 0 225 0 225 -30 0 -30 0 0 -225z"/>
<path d="M2090 1545 l0 -225 30 0 30 0 0 77 c0 75 1 78 36 114 l37 38 82 -112
c76 -105 84 -112 119 -115 l37 -3 -95 129 c-53 71 -96 134 -96 138 0 5 39 48
87 96 l88 88 -35 0 c-31 0 -47 -13 -147 -112 l-113 -113 0 113 0 112 -30 0
-30 0 0 -225z"/>
<path d="M2510 1545 l0 -225 165 0 165 0 0 25 0 25 -135 0 -135 0 0 80 0 80
115 0 115 0 0 25 0 25 -115 0 -115 0 0 70 0 70 130 0 130 0 0 25 0 25 -160 0
-160 0 0 -225z"/>
<path d="M2900 1545 l0 -225 160 0 160 0 0 25 0 24 -132 3 -133 3 0 75 0 75
118 3 117 3 0 24 0 25 -120 0 -120 0 0 70 0 70 135 0 135 0 0 25 0 25 -160 0
-160 0 0 -225z"/>
<path d="M3290 1545 l0 -225 145 0 145 0 0 25 0 24 -117 3 -118 3 -3 198 -2
197 -25 0 -25 0 0 -225z"/>
<path d="M3640 1545 l0 -225 160 0 160 0 0 25 0 24 -132 3 -133 3 0 75 0 75
118 3 117 3 0 24 0 25 -120 0 -120 0 0 70 0 70 135 0 135 0 0 25 0 25 -160 0
-160 0 0 -225z"/>
<path d="M2094 1077 c-2 -7 -3 -109 -2 -227 l3 -215 28 -3 27 -3 0 230 0 231
-25 0 c-14 0 -28 -6 -31 -13z"/>
<path d="M2245 1078 c-3 -7 -4 -110 -3 -228 l3 -215 28 -3 27 -3 0 183 0 183
121 -182 c111 -168 123 -183 150 -183 l29 0 0 230 0 230 -25 0 -25 0 -1 -187
c0 -149 -3 -184 -12 -170 -7 10 -61 93 -122 185 -94 142 -114 167 -138 170
-16 2 -29 -2 -32 -10z"/>
<path d="M2743 1074 c-31 -16 -63 -66 -63 -99 0 -34 32 -84 64 -99 17 -8 54
-20 81 -26 117 -25 162 -67 133 -126 -19 -40 -54 -56 -116 -51 -60 4 -106 39
-117 88 -5 22 -12 29 -30 29 -32 0 -35 -8 -19 -55 19 -56 61 -91 128 -105 63
-13 117 -6 162 21 38 23 54 57 54 113 0 75 -44 109 -172 135 -71 15 -108 43
-108 80 0 38 30 62 83 68 57 7 104 -17 123 -63 11 -26 20 -34 39 -34 14 0 25
5 25 10 0 23 -29 77 -54 100 -24 21 -39 25 -104 28 -56 2 -86 -2 -109 -14z"/>
<path d="M3050 1065 c0 -24 2 -25 75 -25 l75 0 0 -205 0 -205 30 0 30 0 0 205
0 205 75 0 c73 0 75 1 75 25 l0 25 -180 0 -180 0 0 -25z"/>
<path d="M3470 860 l0 -230 25 0 25 0 0 230 0 230 -25 0 -25 0 0 -230z"/>
<path d="M3580 1066 c0 -24 3 -25 73 -28 l72 -3 3 -203 2 -203 28 3 27 3 3
203 2 202 76 0 c72 0 75 1 72 23 -3 22 -5 22 -180 25 l-178 2 0 -24z"/>
<path d="M3990 913 c0 -201 8 -231 71 -265 48 -26 163 -25 206 2 64 38 68 54
68 255 l0 180 -27 3 -27 3 -3 -179 c-3 -160 -5 -182 -22 -201 -42 -46 -140
-46 -182 0 -17 18 -20 42 -24 198 l-5 176 -27 3 -28 3 0 -178z"/>
<path d="M4422 903 c3 -209 8 -227 73 -257 52 -25 164 -22 206 7 61 41 69 70
69 265 l0 172 -30 0 -30 0 0 -174 c0 -160 -2 -175 -21 -199 -42 -54 -146 -54
-189 0 -18 24 -20 40 -20 199 l0 174 -31 0 -31 0 4 -187z"/>
<path d="M4820 1065 c0 -24 2 -25 75 -25 l75 0 0 -205 0 -205 30 0 30 0 0 205
0 205 75 0 c73 0 75 1 75 25 l0 25 -180 0 -180 0 0 -25z"/>
</g>
</svg>
