<svg width="14" height="12" viewBox="0 0 14 12" fill="none" xmlns="http://www.w3.org/2000/svg">
<path d="M5.03906 1.30701L2.95312 3.36951H0.5625C0.234375 3.36951 0 3.62732 0 3.93201V7.30701C0 7.63513 0.234375 7.86951 0.5625 7.86951H2.95312L5.03906 9.95541C5.39062 10.307 6 10.0726 6 9.55701V1.70545C6 1.18982 5.39062 0.955446 5.03906 1.30701ZM10.5 0.088256C10.2422 -0.075806 9.8906 -0.00549397 9.70312 0.252316C9.53906 0.533566 9.60938 0.885126 9.8672 1.0492C11.4375 2.05701 12.3516 3.79139 12.3516 5.64295C12.3516 7.47107 11.4375 9.20541 9.8672 10.2133C9.60938 10.3773 9.53906 10.7289 9.70312 11.0101C9.8672 11.2445 10.2188 11.3383 10.5 11.1742C12.375 9.93201 13.5 7.86951 13.5 5.61951C13.5 3.39295 12.375 1.33045 10.5 0.088256ZM11.25 5.61951C11.25 4.14295 10.4766 2.78357 9.23438 1.96326C8.97656 1.7992 8.625 1.86951 8.46094 2.15076C8.29688 2.40857 8.36719 2.76013 8.625 2.9242C9.5625 3.51013 10.125 4.54139 10.125 5.61951C10.125 6.72107 9.5625 7.75232 8.625 8.33826C8.36719 8.50232 8.29688 8.85389 8.46094 9.1117C8.60156 9.36951 8.95312 9.46331 9.23438 9.29921C10.4766 8.47889 11.25 7.11951 11.25 5.61951ZM7.92188 3.83826C7.64062 3.6742 7.3125 3.76795 7.14844 4.0492C7.00781 4.33045 7.10156 4.65857 7.38281 4.82263C7.66406 4.9867 7.875 5.29139 7.875 5.61951C7.875 5.97107 7.66406 6.27576 7.38281 6.43982C7.10156 6.60389 7.00781 6.93201 7.14844 7.21326C7.3125 7.49451 7.64062 7.58826 7.92188 7.4242C8.57812 7.07263 9 6.36951 9 5.61951C9 4.89295 8.57812 4.18982 7.92188 3.83826Z" fill="#3F3F3F"/>
</svg>
