<svg width="106" height="26" viewBox="0 0 106 26" fill="none" xmlns="http://www.w3.org/2000/svg">
<rect y="11" width="2" height="4" rx="1" fill="#3F3F3F"/>
<rect x="4" y="9" width="2" height="8" rx="1" fill="#3F3F3F"/>
<rect x="8" y="6" width="2" height="14" rx="1" fill="#3F3F3F"/>
<rect x="12" y="9" width="2" height="8" rx="1" fill="#3F3F3F"/>
<rect x="16" width="2" height="26" rx="1" fill="#3F3F3F"/>
<rect x="20" y="4" width="2" height="18" rx="1" fill="#3F3F3F"/>
<rect x="24" y="6" width="2" height="14" rx="1" fill="#3F3F3F"/>
<rect x="28" y="11" width="2" height="4" rx="1" fill="#3F3F3F"/>
<rect x="32" y="10" width="2" height="6" rx="1" fill="#3F3F3F"/>
<rect x="36" y="8" width="2" height="10" rx="1" fill="#3F3F3F"/>
<rect x="40" y="4" width="2" height="18" rx="1" fill="#3F3F3F"/>
<rect x="44" y="4" width="2" height="18" rx="1" fill="#3F3F3F"/>
<rect x="48" y="8" width="2" height="10" rx="1" fill="#3F3F3F"/>
<rect x="52" y="4" width="2" height="18" rx="1" fill="#3F3F3F"/>
<rect x="56" y="1" width="2" height="24" rx="1" fill="#3F3F3F"/>
<rect x="60" y="1" width="2" height="24" rx="1" fill="#3F3F3F"/>
<rect x="64" y="4" width="2" height="18" rx="1" fill="#3F3F3F"/>
<rect x="68" y="8" width="2" height="10" rx="1" fill="#3F3F3F"/>
<rect x="72" y="8" width="2" height="10" rx="1" fill="#3F3F3F"/>
<rect x="76" y="11" width="2" height="4" rx="1" fill="#3F3F3F"/>
<rect x="80" y="11" width="2" height="4" rx="1" fill="#3F3F3F"/>
<rect x="84" y="4" width="2" height="18" rx="1" fill="#3F3F3F"/>
<rect x="88" y="1" width="2" height="24" rx="1" fill="#3F3F3F"/>
<rect x="92" y="4" width="2" height="18" rx="1" fill="#3F3F3F"/>
<rect x="96" y="7" width="2" height="12" rx="1" fill="#3F3F3F"/>
<rect x="100" y="9" width="2" height="8" rx="1" fill="#3F3F3F"/>
<rect x="104" y="11" width="2" height="4" rx="1" fill="#3F3F3F"/>
</svg>
