<svg id="Layer_1" data-name="Layer 1" xmlns="http://www.w3.org/2000/svg" viewBox="0 0 150 130">
    <defs>
        <style>.cls-1{fill:#eaa9d4;}.cls-2{fill:#0c9;}.cls-3{fill:#fff;}</style>
    </defs>
    <path class="cls-1"
          d="M24.83,28.1H125.17a1.43,1.43,0,0,1,1.41,1.64l-11,71a1.43,1.43,0,0,1-1.4,1.21H35.77a1.43,1.43,0,0,1-1.4-1.21L23.42,29.74A1.43,1.43,0,0,1,24.83,28.1Z"/>
    <rect class="cls-2" x="63.98" y="15.99" width="22.04" height="7.95" rx="1.77"/>
    <path class="cls-3" d="M66.13,17.62h1.21v2.22l.9-1H69.7L68.59,19.9l1.18,2H68.42l-.63-1.25-.45.44v.81H66.13Z"/>
    <path class="cls-3"
          d="M70,20.37a1.56,1.56,0,0,1,.48-1.17,2.09,2.09,0,0,1,2.71.08,1.68,1.68,0,0,1-.09,2.25,1.81,1.81,0,0,1-1.32.46,1.86,1.86,0,0,1-1.21-.38A1.54,1.54,0,0,1,70,20.37Zm2.38-2.75h.46a.66.66,0,0,1,0,.13.73.73,0,0,1-.17.51.54.54,0,0,1-.42.18,1.93,1.93,0,0,1-.57-.16,1.05,1.05,0,0,0-.32-.09.15.15,0,0,0-.13,0,.29.29,0,0,0,0,.19h-.46V18.3a.71.71,0,0,1,.17-.49.54.54,0,0,1,.41-.19.64.64,0,0,1,.2,0,1.74,1.74,0,0,1,.33.12,1,1,0,0,0,.36.1.17.17,0,0,0,.13-.05A.32.32,0,0,0,72.36,17.62Zm-1.18,2.75a.87.87,0,0,0,.17.61.5.5,0,0,0,.42.2.52.52,0,0,0,.42-.19,1,1,0,0,0,.17-.63.91.91,0,0,0-.17-.6.5.5,0,0,0-.41-.2.51.51,0,0,0-.43.2A.89.89,0,0,0,71.18,20.37Z"/>
    <path class="cls-3"
          d="M74.14,18.81h1.12v.51a1.4,1.4,0,0,1,.33-.46.72.72,0,0,1,.42-.12,1.24,1.24,0,0,1,.58.16l-.37.85a.91.91,0,0,0-.33-.09.43.43,0,0,0-.37.2,2,2,0,0,0-.18,1v1h-1.2Z"/>
    <path class="cls-3"
          d="M79.11,18.81h1.11v3.07a1.18,1.18,0,0,1-.13.56,1.1,1.1,0,0,1-.33.43,1.32,1.32,0,0,1-.52.24,3.29,3.29,0,0,1-.73.07,2.12,2.12,0,0,1-1.29-.28.93.93,0,0,1-.35-.75,1,1,0,0,1,0-.16l1.15.13a.37.37,0,0,0,.14.22.59.59,0,0,0,.33.1.53.53,0,0,0,.39-.14.73.73,0,0,0,.12-.48v-.47a1.37,1.37,0,0,1-.35.3,1.31,1.31,0,0,1-.59.14,1.17,1.17,0,0,1-1-.54,1.76,1.76,0,0,1-.27-1,1.54,1.54,0,0,1,.35-1.11,1.16,1.16,0,0,1,.92-.38,1.34,1.34,0,0,1,.6.12,1.39,1.39,0,0,1,.44.41ZM78,20.32a.73.73,0,0,0,.14.5.5.5,0,0,0,.38.16.48.48,0,0,0,.37-.17A.74.74,0,0,0,79,20.3a.75.75,0,0,0-.16-.52.48.48,0,0,0-.38-.18.45.45,0,0,0-.37.17A.87.87,0,0,0,78,20.32Z"/>
    <path class="cls-3"
          d="M84.4,20.66H82a.81.81,0,0,0,.15.43.59.59,0,0,0,.45.2A.69.69,0,0,0,83,21.2a1.12,1.12,0,0,0,.21-.19l1.17.1a1.71,1.71,0,0,1-.65.68,2.43,2.43,0,0,1-1.09.2,2.31,2.31,0,0,1-1-.17,1.44,1.44,0,0,1-.59-.56,1.62,1.62,0,0,1-.24-.89,1.57,1.57,0,0,1,.47-1.18,1.78,1.78,0,0,1,1.29-.45,2.38,2.38,0,0,1,1.06.2,1.35,1.35,0,0,1,.59.59,2.15,2.15,0,0,1,.2,1Zm-1.21-.57a.86.86,0,0,0-.19-.5.58.58,0,0,0-.85.08.83.83,0,0,0-.14.42Z"/>
    <rect class="cls-2" x="62.94" y="105.97" width="24.11" height="7.95" rx="1.77"/>
    <path class="cls-3"
          d="M65.22,108.72h1.11v.45a1.57,1.57,0,0,1,.49-.4,1.32,1.32,0,0,1,.59-.12,1.1,1.1,0,0,1,.59.13,1,1,0,0,1,.35.39,1.74,1.74,0,0,1,.52-.41,1.35,1.35,0,0,1,.57-.11,1,1,0,0,1,.78.3,1.28,1.28,0,0,1,.28.93v2H69.3v-1.77a.49.49,0,0,0-.08-.32.39.39,0,0,0-.63,0,.72.72,0,0,0-.13.49v1.6h-1.2v-1.71a1.52,1.52,0,0,0,0-.28.43.43,0,0,0-.13-.19.36.36,0,0,0-.22-.07.43.43,0,0,0-.34.15.8.8,0,0,0-.13.51v1.59h-1.2Z"/>
    <path class="cls-3"
          d="M72.3,109.73l-1.14-.12a1.21,1.21,0,0,1,.18-.47,1,1,0,0,1,.35-.3,1.39,1.39,0,0,1,.46-.14,3.89,3.89,0,0,1,.62,0,5,5,0,0,1,.86.06,1,1,0,0,1,.54.25.91.91,0,0,1,.24.37,1.34,1.34,0,0,1,.09.46v1.38a1.52,1.52,0,0,0,0,.34,1.18,1.18,0,0,0,.12.32H73.53a.73.73,0,0,1-.09-.18,1.37,1.37,0,0,1,0-.2,1.46,1.46,0,0,1-.47.32,1.83,1.83,0,0,1-.73.13,1.27,1.27,0,0,1-.85-.26.82.82,0,0,1-.29-.63.85.85,0,0,1,.21-.59,1.5,1.5,0,0,1,.77-.34l.87-.18.42-.15a.4.4,0,0,0-.09-.3.45.45,0,0,0-.32-.09.88.88,0,0,0-.44.09A.56.56,0,0,0,72.3,109.73Zm1,.62-.51.16a1.14,1.14,0,0,0-.46.19.28.28,0,0,0-.1.22.29.29,0,0,0,.1.23.4.4,0,0,0,.29.09.71.71,0,0,0,.37-.1.59.59,0,0,0,.24-.23.82.82,0,0,0,.07-.37Z"/>
    <path class="cls-3"
          d="M78.49,107.54v4.29H77.37v-.46a1.4,1.4,0,0,1-.43.4,1.2,1.2,0,0,1-.57.13,1.11,1.11,0,0,1-1-.48,2.05,2.05,0,0,1-.34-1.18,1.74,1.74,0,0,1,.37-1.18,1.25,1.25,0,0,1,.95-.41,1.35,1.35,0,0,1,.5.09,1.26,1.26,0,0,1,.4.28v-1.48Zm-1.2,2.73a.84.84,0,0,0-.15-.55.51.51,0,0,0-.39-.18.44.44,0,0,0-.35.17.9.9,0,0,0-.14.58.86.86,0,0,0,.14.56.45.45,0,0,0,.36.18.48.48,0,0,0,.38-.18A.9.9,0,0,0,77.29,110.27Z"/>
    <path class="cls-3"
          d="M80.3,109.73l-1.14-.12a1.39,1.39,0,0,1,.19-.47,1,1,0,0,1,.35-.3,1.41,1.41,0,0,1,.45-.14,4,4,0,0,1,.62,0,4.85,4.85,0,0,1,.86.06,1,1,0,0,1,.54.25.75.75,0,0,1,.24.37,1.34,1.34,0,0,1,.09.46v1.38a1.52,1.52,0,0,0,0,.34,1.65,1.65,0,0,0,.12.32H81.53l-.09-.18s0-.11,0-.2a1.42,1.42,0,0,1-.46.32,1.88,1.88,0,0,1-.74.13,1.22,1.22,0,0,1-.84-.26.82.82,0,0,1-.29-.63.85.85,0,0,1,.21-.59,1.46,1.46,0,0,1,.76-.34l.87-.18.43-.15a.4.4,0,0,0-.09-.3.45.45,0,0,0-.32-.09.83.83,0,0,0-.44.09A.51.51,0,0,0,80.3,109.73Zm1,.62-.52.16a1.21,1.21,0,0,0-.46.19.32.32,0,0,0-.1.22.33.33,0,0,0,.1.23.42.42,0,0,0,.29.09.69.69,0,0,0,.37-.1.49.49,0,0,0,.24-.23.81.81,0,0,0,.08-.37Z"/>
    <path class="cls-3" d="M83.26,107.54h1.19v4.29H83.26Z"/>
    <rect class="cls-2" x="13.32" y="91.02" width="15.09" height="7.95" rx="1.77"/>
    <path class="cls-3"
          d="M18.92,95.69H16.53a.74.74,0,0,0,.16.43.56.56,0,0,0,.45.2.68.68,0,0,0,.33-.09.85.85,0,0,0,.21-.19l1.17.1a1.65,1.65,0,0,1-.65.68,2.43,2.43,0,0,1-1.09.2,2.31,2.31,0,0,1-1-.17,1.44,1.44,0,0,1-.59-.56,1.62,1.62,0,0,1-.23-.89,1.56,1.56,0,0,1,.46-1.18,1.81,1.81,0,0,1,1.29-.45,2.38,2.38,0,0,1,1.06.2,1.4,1.4,0,0,1,.59.59,2.19,2.19,0,0,1,.2,1Zm-1.21-.57a.86.86,0,0,0-.19-.5.54.54,0,0,0-.4-.15.55.55,0,0,0-.45.23.83.83,0,0,0-.14.42Z"/>
    <path class="cls-3"
          d="M22.92,95.69H20.53a.74.74,0,0,0,.16.43.56.56,0,0,0,.45.2.63.63,0,0,0,.33-.09.6.6,0,0,0,.21-.19l1.17.1a1.59,1.59,0,0,1-.65.68,2.4,2.4,0,0,1-1.09.2,2.34,2.34,0,0,1-1-.17,1.44,1.44,0,0,1-.59-.56,1.71,1.71,0,0,1-.23-.89,1.53,1.53,0,0,1,.47-1.18,1.78,1.78,0,0,1,1.29-.45,2.36,2.36,0,0,1,1.05.2,1.35,1.35,0,0,1,.59.59,2.19,2.19,0,0,1,.2,1Zm-1.21-.57a.8.8,0,0,0-.19-.5.53.53,0,0,0-.39-.15.56.56,0,0,0-.46.23.83.83,0,0,0-.14.42Z"/>
    <path class="cls-3"
          d="M23.26,96.09,24.44,96a.57.57,0,0,0,.21.31.61.61,0,0,0,.35.09.58.58,0,0,0,.37-.11.22.22,0,0,0,.1-.19.2.2,0,0,0-.13-.19,2.15,2.15,0,0,0-.51-.13,5.23,5.23,0,0,1-.87-.2.86.86,0,0,1-.4-.31.82.82,0,0,1-.17-.5.83.83,0,0,1,.18-.53,1,1,0,0,1,.49-.33,2.71,2.71,0,0,1,.84-.11,3.18,3.18,0,0,1,.82.08,1.13,1.13,0,0,1,.45.27,1.4,1.4,0,0,1,.29.48l-1.13.11a.4.4,0,0,0-.15-.22.59.59,0,0,0-.34-.09.46.46,0,0,0-.29.07.22.22,0,0,0-.09.17.2.2,0,0,0,.11.18,1.91,1.91,0,0,0,.51.1,3.69,3.69,0,0,1,.89.19,1,1,0,0,1,.44.34.8.8,0,0,1,.16.49,1,1,0,0,1-.17.52,1.07,1.07,0,0,1-.51.41,2.45,2.45,0,0,1-.95.15,2.31,2.31,0,0,1-1.22-.24A1.11,1.11,0,0,1,23.26,96.09Z"/>
    <rect class="cls-2" x="121.1" y="91.02" width="18.62" height="7.95" rx="1.77"/>
    <path class="cls-3"
          d="M124.69,92.66v1.18h.66v.87h-.66v1.1a.56.56,0,0,0,0,.27.22.22,0,0,0,.2.1,1.37,1.37,0,0,0,.37-.08l.09.82a3.61,3.61,0,0,1-.83.1,1.52,1.52,0,0,1-.65-.11.71.71,0,0,1-.31-.35,2,2,0,0,1-.11-.75v-1.1h-.44v-.87h.44v-.57Z"/>
    <path class="cls-3"
          d="M127,94.85l-1.14-.12a1.21,1.21,0,0,1,.19-.47,1,1,0,0,1,.35-.3,1.41,1.41,0,0,1,.45-.14,4,4,0,0,1,.62,0,4.93,4.93,0,0,1,.86.06,1,1,0,0,1,.54.25.91.91,0,0,1,.24.37,1.34,1.34,0,0,1,.09.46v1.38a1.52,1.52,0,0,0,0,.34,1.65,1.65,0,0,0,.12.32h-1.12l-.09-.18s0-.11,0-.2a1.42,1.42,0,0,1-.46.32,1.88,1.88,0,0,1-.74.13,1.22,1.22,0,0,1-.84-.26.79.79,0,0,1-.29-.63.85.85,0,0,1,.21-.59,1.42,1.42,0,0,1,.76-.34l.87-.18.43-.15a.4.4,0,0,0-.1-.3.44.44,0,0,0-.32-.09.81.81,0,0,0-.43.09A.51.51,0,0,0,127,94.85Zm1,.62-.52.16a1.21,1.21,0,0,0-.46.19.32.32,0,0,0-.1.22.33.33,0,0,0,.1.23.42.42,0,0,0,.29.09.69.69,0,0,0,.37-.1A.54.54,0,0,0,128,96a.81.81,0,0,0,.08-.37Z"/>
    <path class="cls-3"
          d="M132.18,93.84h1.11v3.08a1.17,1.17,0,0,1-.13.55,1.1,1.1,0,0,1-.33.43,1.32,1.32,0,0,1-.52.24,3.29,3.29,0,0,1-.73.07,2.12,2.12,0,0,1-1.29-.28.93.93,0,0,1-.35-.75,1,1,0,0,1,0-.16l1.15.13a.37.37,0,0,0,.14.22.52.52,0,0,0,.33.1.53.53,0,0,0,.39-.14.73.73,0,0,0,.12-.48v-.47a1.13,1.13,0,0,1-.94.44,1.17,1.17,0,0,1-1-.54,1.76,1.76,0,0,1-.27-1,1.54,1.54,0,0,1,.35-1.11,1.2,1.2,0,0,1,.92-.38,1.34,1.34,0,0,1,.6.12,1.39,1.39,0,0,1,.44.41Zm-1.12,1.51a.73.73,0,0,0,.14.5.46.46,0,0,0,.38.16.48.48,0,0,0,.37-.17.74.74,0,0,0,.15-.51.75.75,0,0,0-.16-.52.48.48,0,0,0-.38-.18.45.45,0,0,0-.37.17A.87.87,0,0,0,131.06,95.35Z"/>
    <path class="cls-3"
          d="M135.1,94.85,134,94.73a1.21,1.21,0,0,1,.19-.47,1,1,0,0,1,.35-.3,1.41,1.41,0,0,1,.45-.14,4,4,0,0,1,.62,0,4.93,4.93,0,0,1,.86.06,1,1,0,0,1,.54.25.75.75,0,0,1,.24.37,1.34,1.34,0,0,1,.09.46v1.38a1.52,1.52,0,0,0,0,.34,1.65,1.65,0,0,0,.12.32h-1.12l-.09-.18s0-.11,0-.2a1.42,1.42,0,0,1-.46.32A1.88,1.88,0,0,1,135,97a1.22,1.22,0,0,1-.84-.26.79.79,0,0,1-.29-.63.85.85,0,0,1,.21-.59,1.42,1.42,0,0,1,.76-.34l.87-.18.43-.15a.36.36,0,0,0-.1-.3.43.43,0,0,0-.31-.09.83.83,0,0,0-.44.09A.51.51,0,0,0,135.1,94.85Zm1,.62-.52.16a1.21,1.21,0,0,0-.46.19.32.32,0,0,0-.1.22.33.33,0,0,0,.1.23.42.42,0,0,0,.29.09.69.69,0,0,0,.37-.1.49.49,0,0,0,.24-.23.81.81,0,0,0,.08-.37Z"/>
    <rect class="cls-3" x="29.56" y="33.07" width="8.22" height="6.76" rx="1.45"/>
    <path class="cls-2"
          d="M35.33,38.53H34.21V38a1.58,1.58,0,0,1-.5.45,1.46,1.46,0,0,1-.62.13,1,1,0,0,1-.77-.3,1.23,1.23,0,0,1-.28-.9v-2h1.19v1.71a.63.63,0,0,0,.11.41.39.39,0,0,0,.31.13A.44.44,0,0,0,34,37.5a1,1,0,0,0,.13-.59V35.42h1.2Zm-2.65-4.24h.76V35h-.76Zm1.24,0h.77V35h-.77Z"/>
    <rect class="cls-3" x="44.99" y="33.07" width="8.22" height="6.76" rx="1.45"/>
    <path class="cls-2" d="M48.5,34.3h1.2v.81H48.5Zm0,1.18h1.2v3.11H48.5Z"/>
    <rect class="cls-3" x="112.99" y="33.07" width="8.22" height="6.76" rx="1.45"/>
    <path class="cls-2"
          d="M118.75,38h-1.11v-.51a1.54,1.54,0,0,1-.51.44,1.26,1.26,0,0,1-.62.14,1,1,0,0,1-.77-.3,1.26,1.26,0,0,1-.28-.91v-2h1.2v1.72a.58.58,0,0,0,.11.41.38.38,0,0,0,.3.12.43.43,0,0,0,.35-.16,1,1,0,0,0,.14-.59v-1.5h1.19Z"/>
    <rect class="cls-3" x="97.39" y="46.38" width="8.22" height="6.76" rx="1.45"/>
    <path class="cls-2"
          d="M99.72,50.33a1.57,1.57,0,0,1,.48-1.18,2.09,2.09,0,0,1,2.71.08,1.55,1.55,0,0,1,.38,1.08,1.52,1.52,0,0,1-.47,1.17,2.12,2.12,0,0,1-2.53.08A1.51,1.51,0,0,1,99.72,50.33Zm2.38-2.76h.46v.14a.72.72,0,0,1-.16.5.54.54,0,0,1-.42.18,1.55,1.55,0,0,1-.57-.16,1.05,1.05,0,0,0-.32-.09.17.17,0,0,0-.13,0,.31.31,0,0,0,0,.19h-.46v-.12a.72.72,0,0,1,.17-.5.56.56,0,0,1,.41-.19.64.64,0,0,1,.2,0,3,3,0,0,1,.33.12,1.05,1.05,0,0,0,.36.11.14.14,0,0,0,.12-.06S102.09,47.67,102.1,47.57Zm-1.18,2.75a1,1,0,0,0,.16.62.57.57,0,0,0,.43.2.53.53,0,0,0,.42-.2,1,1,0,0,0,.17-.63.91.91,0,0,0-.17-.6.53.53,0,0,0-.41-.2.54.54,0,0,0-.43.2A.91.91,0,0,0,100.92,50.32Z"/>
    <rect class="cls-3" x="109.28" y="59.2" width="8.22" height="6.76" rx="1.45"/>
    <path class="cls-2"
          d="M111.6,62.59a1.56,1.56,0,0,1,.48-1.17,2.09,2.09,0,0,1,2.71.08,1.71,1.71,0,0,1-.09,2.25,1.81,1.81,0,0,1-1.32.46,1.86,1.86,0,0,1-1.21-.38A1.54,1.54,0,0,1,111.6,62.59Zm1.2,0a.93.93,0,0,0,.16.61.53.53,0,0,0,.43.2.52.52,0,0,0,.42-.19,1,1,0,0,0,.17-.63.91.91,0,0,0-.17-.6.5.5,0,0,0-.41-.2.51.51,0,0,0-.43.2A.89.89,0,0,0,112.8,62.59Z"/>
    <rect class="cls-3" x="104.1" y="91.61" width="8.22" height="6.76" rx="1.45"/>
    <path class="cls-2"
          d="M107.66,94.45l-1.14-.13a1.36,1.36,0,0,1,.18-.47,1,1,0,0,1,.35-.29,1.41,1.41,0,0,1,.45-.14,3.16,3.16,0,0,1,.63,0,5,5,0,0,1,.86.06,1.12,1.12,0,0,1,.54.25.91.91,0,0,1,.24.37,1.34,1.34,0,0,1,.09.46v1.38a1.52,1.52,0,0,0,0,.34,1,1,0,0,0,.12.32h-1.12a.73.73,0,0,1-.09-.18,1.73,1.73,0,0,1,0-.2,1.46,1.46,0,0,1-.47.32,1.83,1.83,0,0,1-.73.13,1.25,1.25,0,0,1-.85-.26.82.82,0,0,1-.29-.63.84.84,0,0,1,.21-.59,1.5,1.5,0,0,1,.77-.34c.45-.09.74-.15.87-.19a3,3,0,0,0,.42-.14.43.43,0,0,0-.09-.31.51.51,0,0,0-.32-.08.88.88,0,0,0-.44.09A.51.51,0,0,0,107.66,94.45Zm1,.62-.51.16a1.14,1.14,0,0,0-.46.19.28.28,0,0,0-.1.22.29.29,0,0,0,.1.23A.4.4,0,0,0,108,96a.82.82,0,0,0,.37-.1.56.56,0,0,0,.24-.24.74.74,0,0,0,.07-.36Z"/>
    <rect class="cls-3" x="32.84" y="59.2" width="8.22" height="6.76" rx="1.45"/>
    <path class="cls-2"
          d="M35.17,63.12A1.53,1.53,0,0,1,35.65,62a2.06,2.06,0,0,1,2.71.08,1.54,1.54,0,0,1,.38,1.07,1.6,1.6,0,0,1-.47,1.18,2.12,2.12,0,0,1-2.53.08A1.54,1.54,0,0,1,35.17,63.12ZM36,60.43h.76v.73H36Zm.41,2.69a.94.94,0,0,0,.17.61.57.57,0,0,0,.43.2.5.5,0,0,0,.42-.2,1,1,0,0,0,.17-.63.93.93,0,0,0-.17-.6.53.53,0,0,0-.41-.2.55.55,0,0,0-.44.21A.93.93,0,0,0,36.36,63.12Zm.83-2.69H38v.73h-.77Z"/>
    <rect class="cls-3" x="37.52" y="91.61" width="8.22" height="6.76" rx="1.45"/>
    <path class="cls-2"
          d="M41.08,95l-1.14-.12a1.28,1.28,0,0,1,.18-.47,1.31,1.31,0,0,1,.35-.3,1.68,1.68,0,0,1,.46-.14,3.89,3.89,0,0,1,.62,0,5,5,0,0,1,.86.06,1.13,1.13,0,0,1,.54.25,1,1,0,0,1,.24.38,1.29,1.29,0,0,1,.09.46v1.37a1.56,1.56,0,0,0,0,.35,1.31,1.31,0,0,0,.12.32H42.31a.75.75,0,0,1-.09-.19,1.49,1.49,0,0,1,0-.19,1.64,1.64,0,0,1-.47.32,2,2,0,0,1-.73.13,1.27,1.27,0,0,1-.85-.26.84.84,0,0,1-.29-.64.83.83,0,0,1,.21-.58,1.42,1.42,0,0,1,.77-.34c.45-.09.74-.15.87-.19s.27-.08.42-.14a.43.43,0,0,0-.09-.31.45.45,0,0,0-.32-.09.78.78,0,0,0-.44.1A.58.58,0,0,0,41.08,95Zm-.46-2.13h.77v.73h-.77Zm1.49,2.76a3.8,3.8,0,0,1-.51.15,1.11,1.11,0,0,0-.46.2.29.29,0,0,0,0,.44.4.4,0,0,0,.29.09.81.81,0,0,0,.37-.09.69.69,0,0,0,.24-.24.74.74,0,0,0,.07-.36Zm-.24-2.76h.77v.73h-.77Z"/>
    <rect class="cls-3" x="48.22" y="59.2" width="8.22" height="6.76" rx="1.45"/>
    <path class="cls-2"
          d="M54.13,62.88H51.74a.81.81,0,0,0,.15.43.6.6,0,0,0,.46.2.68.68,0,0,0,.33-.09.93.93,0,0,0,.21-.2l1.17.11a1.65,1.65,0,0,1-.65.68,2.43,2.43,0,0,1-1.09.2,2.15,2.15,0,0,1-1-.18,1.35,1.35,0,0,1-.59-.55,1.62,1.62,0,0,1-.23-.89A1.56,1.56,0,0,1,51,61.41,1.81,1.81,0,0,1,52.28,61a2.25,2.25,0,0,1,1.06.2,1.35,1.35,0,0,1,.59.59,2.15,2.15,0,0,1,.2,1Zm-1.21-.57a.86.86,0,0,0-.19-.5.58.58,0,0,0-.85.08.83.83,0,0,0-.14.42Z"/>
</svg>
