<svg id="Layer_1" data-name="Layer 1" xmlns="http://www.w3.org/2000/svg" viewBox="0 0 337.84 250">
  <defs>
    <style>.cls-1 {
        fill: #eaa9d4;
    }

    .cls-2 {
        fill: #00cea9;
    }

    .cls-3 {
        fill: #fff;
    }

    .cls-4 {
        fill: #b3b3b3;
    }

    .cls-5 {
        fill: #0c9;
    }</style>
  </defs>
  <path class="cls-1"
        d="M49.4,41.74H282.23a3.29,3.29,0,0,1,3.26,3.8l-25.4,164.62a3.29,3.29,0,0,1-3.26,2.8H74.8a3.3,3.3,0,0,1-3.26-2.8L46.14,45.54A3.3,3.3,0,0,1,49.4,41.74Z"/>
  <rect class="cls-2" x="140.25" y="13.62" width="51.14" height="18.44" rx="1.77"/>
  <path class="cls-3" d="M145.23,17.42h2.82v5.14l2.07-2.39h3.41l-2.59,2.53,2.74,4.69h-3.12l-1.46-2.9-1,1v1.88h-2.82Z"/>
  <path class="cls-3"
        d="M154.17,23.8a3.62,3.62,0,0,1,1.12-2.73,4.84,4.84,0,0,1,6.29.19,3.68,3.68,0,0,1,.89,2.5,3.62,3.62,0,0,1-1.11,2.73,4.24,4.24,0,0,1-3.05,1.06,4.36,4.36,0,0,1-2.82-.88A3.55,3.55,0,0,1,154.17,23.8Zm5.52-6.39h1.08v.31a1.65,1.65,0,0,1-.38,1.17,1.25,1.25,0,0,1-1,.41,3.87,3.87,0,0,1-1.31-.36,2.54,2.54,0,0,0-.75-.21.38.38,0,0,0-.3.12.71.71,0,0,0-.12.43h-1.06V19a1.62,1.62,0,0,1,.4-1.16,1.26,1.26,0,0,1,.95-.43,1.63,1.63,0,0,1,.45.06,5.69,5.69,0,0,1,.78.29,2.41,2.41,0,0,0,.82.24.38.38,0,0,0,.3-.13A.77.77,0,0,0,159.69,17.41ZM157,23.79a2.2,2.2,0,0,0,.39,1.43,1.23,1.23,0,0,0,1,.46,1.2,1.2,0,0,0,1-.46,2.22,2.22,0,0,0,.39-1.46,2.1,2.1,0,0,0-.39-1.39,1.2,1.2,0,0,0-1-.46,1.25,1.25,0,0,0-1,.46A2.19,2.19,0,0,0,157,23.79Z"/>
  <path class="cls-3"
        d="M163.83,20.17h2.59v1.18a2.87,2.87,0,0,1,.77-1.06,1.63,1.63,0,0,1,1-.29,3,3,0,0,1,1.34.38l-.86,2a2.08,2.08,0,0,0-.77-.21,1,1,0,0,0-.85.45,4.64,4.64,0,0,0-.42,2.37v2.42h-2.78Z"/>
  <path class="cls-3"
        d="M175.35,20.17h2.59V27.3a3,3,0,0,1-.29,1.3,2.88,2.88,0,0,1-.77,1,3.19,3.19,0,0,1-1.22.55,7.72,7.72,0,0,1-1.69.17,5,5,0,0,1-3-.66,2.11,2.11,0,0,1-.81-1.74c0-.09,0-.22,0-.37l2.68.31a.88.88,0,0,0,.31.51,1.34,1.34,0,0,0,.77.21,1.15,1.15,0,0,0,.9-.32,1.66,1.66,0,0,0,.29-1.11v-1.1a2.66,2.66,0,0,1-.81.7,2.88,2.88,0,0,1-1.38.34,2.73,2.73,0,0,1-2.34-1.26,4.05,4.05,0,0,1-.64-2.37,3.67,3.67,0,0,1,.82-2.57,2.78,2.78,0,0,1,2.14-.89,3,3,0,0,1,1.39.29,3.06,3.06,0,0,1,1,.94Zm-2.61,3.5a1.73,1.73,0,0,0,.34,1.16,1.1,1.1,0,0,0,.87.37,1.11,1.11,0,0,0,.87-.39,1.73,1.73,0,0,0,.35-1.18,1.74,1.74,0,0,0-.37-1.2,1.13,1.13,0,0,0-.89-.42,1.05,1.05,0,0,0-.85.38A2,2,0,0,0,172.74,23.67Z"/>
  <path class="cls-3"
        d="M187.63,24.46h-5.55a1.81,1.81,0,0,0,.36,1,1.31,1.31,0,0,0,1.05.46,1.5,1.5,0,0,0,.77-.2,1.94,1.94,0,0,0,.48-.45l2.73.25A4,4,0,0,1,186,27.08a5.55,5.55,0,0,1-2.54.47,5.33,5.33,0,0,1-2.25-.4,3.31,3.31,0,0,1-1.37-1.29,3.89,3.89,0,0,1-.54-2.07,3.65,3.65,0,0,1,1.09-2.74,4.11,4.11,0,0,1,3-1.05,5.36,5.36,0,0,1,2.45.47,3.27,3.27,0,0,1,1.37,1.36,5,5,0,0,1,.47,2.32Zm-2.82-1.32a1.83,1.83,0,0,0-.43-1.15,1.25,1.25,0,0,0-.92-.35,1.28,1.28,0,0,0-1.06.53,1.91,1.91,0,0,0-.31,1Z"/>
  <rect class="cls-2" x="137.84" y="222.42" width="55.95" height="18.44" rx="1.77"/>
  <path class="cls-3"
        d="M143.13,228.79h2.58v1.06a3.59,3.59,0,0,1,1.12-.94,3.06,3.06,0,0,1,1.38-.28,2.7,2.7,0,0,1,1.37.3,2.31,2.31,0,0,1,.82.92,4,4,0,0,1,1.19-1,3,3,0,0,1,1.32-.25,2.37,2.37,0,0,1,1.81.69,3,3,0,0,1,.65,2.16V236H152.6V231.9a1.14,1.14,0,0,0-.19-.73.81.81,0,0,0-.69-.37,1,1,0,0,0-.79.35,1.81,1.81,0,0,0-.29,1.14V236h-2.78v-4a2.36,2.36,0,0,0-.05-.64.87.87,0,0,0-.31-.44.8.8,0,0,0-.51-.17,1,1,0,0,0-.78.36,1.81,1.81,0,0,0-.31,1.19V236h-2.77Z"/>
  <path class="cls-3"
        d="M159.55,231.13l-2.65-.28a3,3,0,0,1,.44-1.09,2.44,2.44,0,0,1,.81-.69,3.42,3.42,0,0,1,1-.33,9.16,9.16,0,0,1,1.44-.11,11.81,11.81,0,0,1,2,.14,2.46,2.46,0,0,1,1.25.58,2,2,0,0,1,.56.87,3,3,0,0,1,.2,1.07v3.19a4,4,0,0,0,.07.79,3.55,3.55,0,0,0,.28.74h-2.6a2.85,2.85,0,0,1-.2-.42c0-.1-.06-.25-.1-.46a3.52,3.52,0,0,1-1.08.75,4.65,4.65,0,0,1-1.7.29,2.84,2.84,0,0,1-2-.59,1.89,1.89,0,0,1-.67-1.48,1.92,1.92,0,0,1,.48-1.35A3.21,3.21,0,0,1,159,232c1-.21,1.71-.35,2-.44a8.08,8.08,0,0,0,1-.33,1,1,0,0,0-.21-.71,1,1,0,0,0-.74-.21,1.93,1.93,0,0,0-1,.22A1.18,1.18,0,0,0,159.55,231.13Zm2.4,1.46c-.38.13-.78.25-1.19.36a2.72,2.72,0,0,0-1.07.44.7.7,0,0,0,0,1,.94.94,0,0,0,.67.21,1.73,1.73,0,0,0,.86-.23,1.39,1.39,0,0,0,.56-.54A1.87,1.87,0,0,0,162,233Z"/>
  <path class="cls-3"
        d="M173.91,226.05v10h-2.59v-1.07a3.37,3.37,0,0,1-1,.92,2.8,2.8,0,0,1-1.33.31,2.57,2.57,0,0,1-2.26-1.12,4.69,4.69,0,0,1-.77-2.72,3.94,3.94,0,0,1,.86-2.75,2.82,2.82,0,0,1,2.18-1,2.94,2.94,0,0,1,1.17.22,2.53,2.53,0,0,1,.94.65v-3.45Zm-2.77,6.33a1.91,1.91,0,0,0-.36-1.27,1.13,1.13,0,0,0-.91-.41,1,1,0,0,0-.81.4,2.77,2.77,0,0,0,0,2.64,1,1,0,0,0,.83.41,1.12,1.12,0,0,0,.89-.42A2.08,2.08,0,0,0,171.14,232.38Z"/>
  <path class="cls-3"
        d="M178.12,231.13l-2.64-.28a3,3,0,0,1,.43-1.09,2.55,2.55,0,0,1,.81-.69,3.42,3.42,0,0,1,1.05-.33,9.16,9.16,0,0,1,1.44-.11,11.81,11.81,0,0,1,2,.14,2.46,2.46,0,0,1,1.25.58,1.91,1.91,0,0,1,.56.87,3,3,0,0,1,.21,1.07v3.19a4.08,4.08,0,0,0,.06.79,3.55,3.55,0,0,0,.28.74H181a2.27,2.27,0,0,1-.21-.42,3.37,3.37,0,0,1-.09-.46,3.78,3.78,0,0,1-1.08.75,4.71,4.71,0,0,1-1.71.29,2.84,2.84,0,0,1-2-.59,1.89,1.89,0,0,1-.67-1.48,1.92,1.92,0,0,1,.48-1.35,3.21,3.21,0,0,1,1.78-.79c1-.21,1.71-.35,2-.44a7.54,7.54,0,0,0,1-.33,1,1,0,0,0-.21-.71,1,1,0,0,0-.74-.21,2,2,0,0,0-1,.22A1.18,1.18,0,0,0,178.12,231.13Zm2.4,1.46c-.38.13-.78.25-1.19.36a2.72,2.72,0,0,0-1.07.44.7.7,0,0,0,0,1,1,1,0,0,0,.67.21,1.73,1.73,0,0,0,.86-.23,1.39,1.39,0,0,0,.56-.54,1.87,1.87,0,0,0,.17-.84Z"/>
  <path class="cls-3" d="M185,226.05h2.77v10H185Z"/>
  <rect class="cls-2" x="21.7" y="187.72" width="35" height="18.44" rx="1.77"/>
  <path class="cls-3"
        d="M34.69,198.56H29.15a1.78,1.78,0,0,0,.36,1,1.27,1.27,0,0,0,1,.47,1.65,1.65,0,0,0,.78-.2,1.83,1.83,0,0,0,.48-.46l2.73.25A3.86,3.86,0,0,1,33,201.17a5.43,5.43,0,0,1-2.54.48,5.14,5.14,0,0,1-2.25-.41A3.35,3.35,0,0,1,26.87,200a3.89,3.89,0,0,1-.54-2.07,3.62,3.62,0,0,1,1.09-2.74,4.11,4.11,0,0,1,3-1.05,5.39,5.39,0,0,1,2.45.47,3.13,3.13,0,0,1,1.36,1.36,4.88,4.88,0,0,1,.47,2.32Zm-2.81-1.32a1.89,1.89,0,0,0-.43-1.15,1.36,1.36,0,0,0-2,.17,2,2,0,0,0-.32,1Z"/>
  <path class="cls-3"
        d="M44,198.56H38.43a1.78,1.78,0,0,0,.36,1,1.3,1.3,0,0,0,1.05.47,1.61,1.61,0,0,0,.77-.2,1.85,1.85,0,0,0,.49-.46l2.72.25a3.79,3.79,0,0,1-1.51,1.56,5.39,5.39,0,0,1-2.53.48,5.19,5.19,0,0,1-2.26-.41A3.33,3.33,0,0,1,36.16,200a3.89,3.89,0,0,1-.54-2.07,3.65,3.65,0,0,1,1.08-2.74,4.14,4.14,0,0,1,3-1.05,5.32,5.32,0,0,1,2.44.47,3.16,3.16,0,0,1,1.37,1.36,5,5,0,0,1,.47,2.32Zm-2.81-1.32a1.83,1.83,0,0,0-.44-1.15,1.25,1.25,0,0,0-.92-.35,1.24,1.24,0,0,0-1.05.52,1.86,1.86,0,0,0-.32,1Z"/>
  <path class="cls-3"
        d="M44.76,199.48l2.75-.26a1.33,1.33,0,0,0,.47.7,1.45,1.45,0,0,0,.82.21,1.35,1.35,0,0,0,.86-.24.51.51,0,0,0,.24-.44.5.5,0,0,0-.31-.46,5.49,5.49,0,0,0-1.19-.28,12.73,12.73,0,0,1-2-.47,2.09,2.09,0,0,1-.95-.72,2,2,0,0,1,0-2.39,2.46,2.46,0,0,1,1.14-.77,6.08,6.08,0,0,1,2-.26,6.76,6.76,0,0,1,1.91.2,2.48,2.48,0,0,1,1,.61,3.28,3.28,0,0,1,.68,1.12l-2.62.26a.91.91,0,0,0-.34-.51,1.44,1.44,0,0,0-.79-.22,1.11,1.11,0,0,0-.68.17.47.47,0,0,0-.22.4.43.43,0,0,0,.27.4,4.71,4.71,0,0,0,1.19.25,8.19,8.19,0,0,1,2,.43,2.27,2.27,0,0,1,1,.8,1.92,1.92,0,0,1,.36,1.13,2.27,2.27,0,0,1-.38,1.22,2.62,2.62,0,0,1-1.19.94,5.77,5.77,0,0,1-2.21.35,5.22,5.22,0,0,1-2.82-.57A2.53,2.53,0,0,1,44.76,199.48Z"/>
  <rect class="cls-2" x="273.8" y="187.72" width="43.21" height="18.44" rx="1.77"/>
  <path class="cls-3"
        d="M282.11,191.52v2.74h1.53v2h-1.53v2.56a1.34,1.34,0,0,0,.09.61.52.52,0,0,0,.48.23,3,3,0,0,0,.86-.18l.2,1.91a9,9,0,0,1-1.92.23,3.27,3.27,0,0,1-1.52-.27,1.57,1.57,0,0,1-.72-.8,4.66,4.66,0,0,1-.24-1.75v-2.54h-1v-2h1v-1.32Z"/>
  <path class="cls-3"
        d="M287.48,196.6l-2.65-.28a3,3,0,0,1,.44-1.09,2.34,2.34,0,0,1,.81-.69,3.2,3.2,0,0,1,1-.32,8.26,8.26,0,0,1,1.45-.12,11.68,11.68,0,0,1,2,.14,2.54,2.54,0,0,1,1.26.58,2.05,2.05,0,0,1,.56.87,3,3,0,0,1,.2,1.07V200a3.42,3.42,0,0,0,.07.8,3.17,3.17,0,0,0,.28.73h-2.6a2.44,2.44,0,0,1-.2-.42c0-.1-.06-.25-.1-.46a3.52,3.52,0,0,1-1.08.75,4.49,4.49,0,0,1-1.7.3,2.84,2.84,0,0,1-2-.6,1.89,1.89,0,0,1-.67-1.48,1.94,1.94,0,0,1,.48-1.35,3.25,3.25,0,0,1,1.78-.79c1-.21,1.71-.35,2-.44a8.08,8.08,0,0,0,1-.33,1,1,0,0,0-.21-.71,1,1,0,0,0-.74-.2,1.94,1.94,0,0,0-1,.21A1.22,1.22,0,0,0,287.48,196.6Zm2.4,1.46c-.38.13-.78.25-1.19.36a2.72,2.72,0,0,0-1.07.44.71.71,0,0,0-.23.51.69.69,0,0,0,.23.53.94.94,0,0,0,.67.21,1.72,1.72,0,0,0,.86-.22,1.41,1.41,0,0,0,.56-.55,1.87,1.87,0,0,0,.17-.84Z"/>
  <path class="cls-3"
        d="M299.49,194.26h2.59v7.14a3,3,0,0,1-.29,1.3,2.65,2.65,0,0,1-.77,1,2.92,2.92,0,0,1-1.22.55,7.15,7.15,0,0,1-1.69.17,4.91,4.91,0,0,1-3-.65,2.11,2.11,0,0,1-.82-1.75c0-.09,0-.21,0-.36l2.68.3a.91.91,0,0,0,.31.52,1.34,1.34,0,0,0,.77.21,1.19,1.19,0,0,0,.9-.32,1.66,1.66,0,0,0,.29-1.11v-1.1a2.81,2.81,0,0,1-.81.7,2.88,2.88,0,0,1-1.38.34,2.73,2.73,0,0,1-2.34-1.26,4.06,4.06,0,0,1-.63-2.38,3.69,3.69,0,0,1,.81-2.57,2.82,2.82,0,0,1,2.14-.88,3,3,0,0,1,1.39.29,3.06,3.06,0,0,1,1,.94Zm-2.6,3.51a1.7,1.7,0,0,0,.33,1.15,1.08,1.08,0,0,0,.88.38,1.11,1.11,0,0,0,.86-.39,1.68,1.68,0,0,0,.35-1.18,1.82,1.82,0,0,0-.36-1.21,1.19,1.19,0,0,0-.9-.41,1,1,0,0,0-.85.38A2,2,0,0,0,296.89,197.77Z"/>
  <path class="cls-3"
        d="M306.27,196.6l-2.64-.28a3,3,0,0,1,.43-1.09,2.55,2.55,0,0,1,.81-.69,3.35,3.35,0,0,1,1.05-.32,8.14,8.14,0,0,1,1.44-.12,11.72,11.72,0,0,1,2,.14,2.62,2.62,0,0,1,1.26.58,2.15,2.15,0,0,1,.56.87,3.25,3.25,0,0,1,.2,1.07V200a4.2,4.2,0,0,0,.06.8,3.87,3.87,0,0,0,.29.73h-2.6a2.44,2.44,0,0,1-.2-.42,2.17,2.17,0,0,1-.1-.46,3.52,3.52,0,0,1-1.08.75,4.5,4.5,0,0,1-1.71.3,2.86,2.86,0,0,1-2-.6,2,2,0,0,1-.19-2.83,3.32,3.32,0,0,1,1.79-.79c1-.21,1.71-.35,2-.44a7.54,7.54,0,0,0,1-.33,1,1,0,0,0-.21-.71,1,1,0,0,0-.74-.2,2,2,0,0,0-1,.21A1.28,1.28,0,0,0,306.27,196.6Zm2.4,1.46c-.38.13-.77.25-1.19.36a2.66,2.66,0,0,0-1.06.44.67.67,0,0,0-.23.51.68.68,0,0,0,.22.53,1,1,0,0,0,.67.21,1.69,1.69,0,0,0,.86-.22,1.38,1.38,0,0,0,.57-.55,1.88,1.88,0,0,0,.16-.84Z"/>
  <rect class="cls-3" x="57.82" y="50.18" width="24.92" height="15.68" rx="1.45"/>
  <path class="cls-4"
        d="M74.61,55.61l-1.16,1.16H72.13a.31.31,0,0,0-.31.31V59a.3.3,0,0,0,.31.32h1.32l1.16,1.15a.31.31,0,0,0,.53-.22V55.84A.31.31,0,0,0,74.61,55.61Z"/>
  <path class="cls-4"
        d="M76.71,57a.44.44,0,0,0-.44.11.36.36,0,0,0,.17.45.56.56,0,0,1,.27.44.43.43,0,0,1-.27.44.39.39,0,0,0-.17.45.3.3,0,0,0,.44.11,1.05,1.05,0,0,0,.61-1A1.18,1.18,0,0,0,76.71,57Z"/>
  <path class="cls-4"
        d="M78.88,58a2.57,2.57,0,0,0-1.11-2,.29.29,0,0,0-.38.17.25.25,0,0,0,0,.38,1.77,1.77,0,0,1,0,3c-.11.11-.17.33,0,.44a.24.24,0,0,0,.38.11A2.37,2.37,0,0,0,78.88,58Z"/>
  <path class="cls-4"
        d="M78.83,55a.3.3,0,0,0-.44.11.24.24,0,0,0,.11.39A3,3,0,0,1,79.88,58a3,3,0,0,1-1.38,2.55.34.34,0,0,0-.11.44.42.42,0,0,0,.44.11,3.68,3.68,0,0,0,0-6.15Z"/>
  <path class="cls-5"
        d="M69.25,62.85H66.66V61.68a3.73,3.73,0,0,1-1.16,1,3.2,3.2,0,0,1-1.45.31,2.34,2.34,0,0,1-1.79-.69,3,3,0,0,1-.65-2.1v-4.6h2.78v4a1.51,1.51,0,0,0,.25,1,.91.91,0,0,0,.71.28,1,1,0,0,0,.81-.38,2.18,2.18,0,0,0,.32-1.36V55.63h2.77ZM63.11,53h1.76v1.7H63.11ZM66,53h1.79v1.7H66Z"/>
  <rect class="cls-3" x="96.18" y="50.18" width="24.92" height="15.68" rx="1.45"/>
  <path class="cls-4"
        d="M112.08,55.92l-1.15,1.16H109.6a.31.31,0,0,0-.31.31v1.87a.3.3,0,0,0,.31.31h1.33l1.15,1.16a.32.32,0,0,0,.54-.22V56.14A.32.32,0,0,0,112.08,55.92Z"/>
  <path class="cls-4"
        d="M114.19,57.31a.42.42,0,0,0-.44.11.34.34,0,0,0,.16.44.58.58,0,0,1,.28.45.43.43,0,0,1-.28.44.37.37,0,0,0-.16.44.3.3,0,0,0,.44.12,1.05,1.05,0,0,0,.61-1A1.16,1.16,0,0,0,114.19,57.31Z"/>
  <path class="cls-4"
        d="M116.36,58.31a2.59,2.59,0,0,0-1.11-2.05.31.31,0,0,0-.39.16.26.26,0,0,0,.06.39,1.76,1.76,0,0,1,0,3,.34.34,0,0,0-.06.45.25.25,0,0,0,.39.11A2.37,2.37,0,0,0,116.36,58.31Z"/>
  <path class="cls-4"
        d="M116.3,55.27a.29.29,0,0,0-.44.11.25.25,0,0,0,.11.39,2.93,2.93,0,0,1,1.39,2.55A3,3,0,0,1,116,60.87a.33.33,0,0,0-.11.44.42.42,0,0,0,.44.11,3.67,3.67,0,0,0,0-6.15Z"/>
  <path class="cls-2" d="M102.34,53h2.77v1.88h-2.77Zm0,2.74h2.77V63h-2.77Z"/>
  <rect class="cls-3" x="247.72" y="50.18" width="24.92" height="15.68" rx="1.45"/>
  <path class="cls-4"
        d="M263.63,55.61l-1.16,1.16h-1.32a.31.31,0,0,0-.32.31V59a.3.3,0,0,0,.32.32h1.32l1.16,1.15a.31.31,0,0,0,.53-.22V55.84A.31.31,0,0,0,263.63,55.61Z"/>
  <path class="cls-4"
        d="M265.73,57a.44.44,0,0,0-.44.11.35.35,0,0,0,.17.45.56.56,0,0,1,.27.44.43.43,0,0,1-.27.44.37.37,0,0,0-.17.45.3.3,0,0,0,.44.11,1.05,1.05,0,0,0,.61-1A1.18,1.18,0,0,0,265.73,57Z"/>
  <path class="cls-4"
        d="M267.9,58a2.57,2.57,0,0,0-1.11-2,.3.3,0,0,0-.39.17.26.26,0,0,0,.06.38,1.77,1.77,0,0,1,0,3c-.11.11-.17.33-.06.44a.25.25,0,0,0,.39.11A2.37,2.37,0,0,0,267.9,58Z"/>
  <path class="cls-4"
        d="M267.85,55a.31.31,0,0,0-.45.11.25.25,0,0,0,.11.39A3,3,0,0,1,268.9,58a3,3,0,0,1-1.39,2.55.36.36,0,0,0-.11.44.43.43,0,0,0,.45.11,3.68,3.68,0,0,0,0-6.15Z"/>
  <path class="cls-2"
        d="M258.33,61.55h-2.58V60.38a3.7,3.7,0,0,1-1.17,1,3,3,0,0,1-1.44.31,2.37,2.37,0,0,1-1.79-.68,3,3,0,0,1-.65-2.11V54.33h2.78v4a1.44,1.44,0,0,0,.25,1,.9.9,0,0,0,.71.29,1,1,0,0,0,.81-.38,2.22,2.22,0,0,0,.32-1.37V54.33h2.76Z"/>
  <rect class="cls-3" x="219.52" y="84.14" width="24.92" height="15.68" rx="1.45"/>
  <path class="cls-4"
        d="M235.42,89.57l-1.15,1.16h-1.33a.31.31,0,0,0-.31.31v1.87a.3.3,0,0,0,.31.31h1.33l1.15,1.16a.32.32,0,0,0,.54-.22V89.79A.32.32,0,0,0,235.42,89.57Z"/>
  <path class="cls-4"
        d="M237.53,91a.44.44,0,0,0-.44.11.36.36,0,0,0,.16.45.55.55,0,0,1,.28.44.43.43,0,0,1-.28.44.38.38,0,0,0-.16.45.3.3,0,0,0,.44.11,1.05,1.05,0,0,0,.61-1A1.16,1.16,0,0,0,237.53,91Z"/>
  <path class="cls-4"
        d="M239.7,92a2.59,2.59,0,0,0-1.11-2,.3.3,0,0,0-.39.16.27.27,0,0,0,.05.39,1.76,1.76,0,0,1,0,3,.34.34,0,0,0-.05.44.24.24,0,0,0,.39.11A2.37,2.37,0,0,0,239.7,92Z"/>
  <path class="cls-4"
        d="M239.64,88.92a.29.29,0,0,0-.44.11.25.25,0,0,0,.11.39A2.93,2.93,0,0,1,240.7,92a3,3,0,0,1-1.39,2.55.33.33,0,0,0-.11.44.42.42,0,0,0,.44.11,3.67,3.67,0,0,0,0-6.15Z"/>
  <path class="cls-2"
        d="M222.18,93.29a3.61,3.61,0,0,1,1.11-2.72,4.18,4.18,0,0,1,3-1.07,4.14,4.14,0,0,1,3.28,1.26,3.93,3.93,0,0,1-.21,5.22,4.94,4.94,0,0,1-5.87.18A3.54,3.54,0,0,1,222.18,93.29Zm5.52-6.38h1.07c0,.12,0,.22,0,.31a1.65,1.65,0,0,1-.38,1.16,1.27,1.27,0,0,1-1,.42,4,4,0,0,1-1.32-.36,2.39,2.39,0,0,0-.74-.22.4.4,0,0,0-.31.12.71.71,0,0,0-.11.44h-1.06c0-.11,0-.21,0-.29a1.6,1.6,0,0,1,.4-1.15,1.24,1.24,0,0,1,.95-.43,2.14,2.14,0,0,1,.45,0q.21.06.78.3a2.65,2.65,0,0,0,.82.23.38.38,0,0,0,.3-.12A.74.74,0,0,0,227.7,86.91ZM225,93.29a2.17,2.17,0,0,0,.39,1.42,1.24,1.24,0,0,0,1,.47,1.26,1.26,0,0,0,1-.46,2.28,2.28,0,0,0,.38-1.46,2.13,2.13,0,0,0-.39-1.4,1.23,1.23,0,0,0-1-.46,1.27,1.27,0,0,0-1,.47A2.17,2.17,0,0,0,225,93.29Z"/>
  <rect class="cls-3" x="226.78" y="189.59" width="24.92" height="15.68" rx="1.45"/>
  <path class="cls-4"
        d="M242.68,195l-1.15,1.16H240.2a.31.31,0,0,0-.31.31v1.87a.3.3,0,0,0,.31.32h1.33l1.15,1.15a.31.31,0,0,0,.54-.22v-4.36A.32.32,0,0,0,242.68,195Z"/>
  <path class="cls-4"
        d="M244.79,196.41a.44.44,0,0,0-.44.11.36.36,0,0,0,.16.45.56.56,0,0,1,.28.44.43.43,0,0,1-.28.44.38.38,0,0,0-.16.45.3.3,0,0,0,.44.11,1.05,1.05,0,0,0,.61-1A1.18,1.18,0,0,0,244.79,196.41Z"/>
  <path class="cls-4"
        d="M247,197.41a2.59,2.59,0,0,0-1.11-2,.3.3,0,0,0-.39.17.26.26,0,0,0,.06.38,1.77,1.77,0,0,1,0,3c-.11.11-.17.33-.06.44a.25.25,0,0,0,.39.11A2.37,2.37,0,0,0,247,197.41Z"/>
  <path class="cls-4"
        d="M246.9,194.37a.3.3,0,0,0-.44.11.25.25,0,0,0,.11.39,3,3,0,0,1,1.39,2.55,3,3,0,0,1-1.39,2.55.36.36,0,0,0-.11.44.42.42,0,0,0,.44.11,3.67,3.67,0,0,0,0-6.15Z"/>
  <path class="cls-2"
        d="M232.59,196.16l-2.64-.28a2.92,2.92,0,0,1,.43-1.09,2.32,2.32,0,0,1,.81-.69,3.61,3.61,0,0,1,1.05-.33,9.16,9.16,0,0,1,1.44-.11,10.78,10.78,0,0,1,2,.14,2.54,2.54,0,0,1,1.26.58,2,2,0,0,1,.55.86,3.07,3.07,0,0,1,.21,1.07v3.19a4.13,4.13,0,0,0,.06.8,3.92,3.92,0,0,0,.29.74h-2.6a1.83,1.83,0,0,1-.3-.88,3.66,3.66,0,0,1-1.08.74,4.5,4.5,0,0,1-1.71.3,2.86,2.86,0,0,1-2-.6,1.87,1.87,0,0,1-.67-1.47,1.92,1.92,0,0,1,.48-1.35A3.25,3.25,0,0,1,232,197c1-.21,1.71-.36,2-.44a7.54,7.54,0,0,0,1-.33,1,1,0,0,0-.21-.71,1,1,0,0,0-.74-.21,1.89,1.89,0,0,0-1,.22A1.24,1.24,0,0,0,232.59,196.16Zm2.4,1.45a10.34,10.34,0,0,1-1.19.36,2.63,2.63,0,0,0-1.06.45.64.64,0,0,0-.23.51.69.69,0,0,0,.22.53,1,1,0,0,0,.67.21,1.7,1.7,0,0,0,.86-.23,1.32,1.32,0,0,0,.57-.55,1.82,1.82,0,0,0,.16-.84Z"/>
  <rect class="cls-3" x="66.98" y="113.23" width="24.92" height="15.68" rx="1.45"/>
  <path class="cls-4"
        d="M82.88,119.39l-1.16,1.16H80.4a.31.31,0,0,0-.31.31v1.87a.3.3,0,0,0,.31.32h1.32l1.16,1.15a.31.31,0,0,0,.53-.22v-4.36A.31.31,0,0,0,82.88,119.39Z"/>
  <path class="cls-4"
        d="M85,120.78a.45.45,0,0,0-.45.11.36.36,0,0,0,.17.45.59.59,0,0,1,.28.44.46.46,0,0,1-.28.45.37.37,0,0,0-.17.44.3.3,0,0,0,.45.11,1.06,1.06,0,0,0,.61-1A1.2,1.2,0,0,0,85,120.78Z"/>
  <path class="cls-4"
        d="M87.15,121.78a2.57,2.57,0,0,0-1.11-2,.29.29,0,0,0-.38.17.25.25,0,0,0,0,.38,1.77,1.77,0,0,1,0,3c-.11.11-.17.33,0,.44a.24.24,0,0,0,.38.11A2.37,2.37,0,0,0,87.15,121.78Z"/>
  <path class="cls-4"
        d="M87.1,118.74a.3.3,0,0,0-.44.11.24.24,0,0,0,.11.39,3,3,0,0,1,1.38,2.55,3,3,0,0,1-1.38,2.55.34.34,0,0,0-.11.44.42.42,0,0,0,.44.11,3.68,3.68,0,0,0,0-6.15Z"/>
  <path class="cls-2"
        d="M69.4,122.31a3.61,3.61,0,0,1,1.11-2.72,4.84,4.84,0,0,1,6.29.19,3.93,3.93,0,0,1-.21,5.22,4.94,4.94,0,0,1-5.87.18A3.55,3.55,0,0,1,69.4,122.31Zm1.81-6.24H73v1.7H71.21Zm1,6.23a2.18,2.18,0,0,0,.39,1.43,1.23,1.23,0,0,0,1,.46,1.25,1.25,0,0,0,1-.45,2.3,2.3,0,0,0,.38-1.46,2.11,2.11,0,0,0-.39-1.4,1.2,1.2,0,0,0-1-.46,1.27,1.27,0,0,0-1,.47A2.16,2.16,0,0,0,72.17,122.3Zm1.92-6.23h1.79v1.7H74.09Z"/>
  <rect class="cls-3" x="79.76" y="189.59" width="24.92" height="15.68" rx="1.45"/>
  <path class="cls-4"
        d="M95.67,195l-1.16,1.16H93.18a.31.31,0,0,0-.31.31v1.87a.3.3,0,0,0,.31.32h1.33l1.16,1.15a.31.31,0,0,0,.53-.22v-4.36A.31.31,0,0,0,95.67,195Z"/>
  <path class="cls-4"
        d="M97.77,196.41a.44.44,0,0,0-.44.11.35.35,0,0,0,.17.45.58.58,0,0,1,.27.44.43.43,0,0,1-.27.44.37.37,0,0,0-.17.45.3.3,0,0,0,.44.11,1.05,1.05,0,0,0,.61-1A1.18,1.18,0,0,0,97.77,196.41Z"/>
  <path class="cls-4"
        d="M99.94,197.41a2.57,2.57,0,0,0-1.11-2,.3.3,0,0,0-.39.17.26.26,0,0,0,.06.38,1.77,1.77,0,0,1,0,3c-.11.11-.17.33-.06.44a.25.25,0,0,0,.39.11A2.37,2.37,0,0,0,99.94,197.41Z"/>
  <path class="cls-4"
        d="M99.89,194.37a.31.31,0,0,0-.45.11.25.25,0,0,0,.11.39,3,3,0,0,1,1.39,2.55A3,3,0,0,1,99.55,200a.36.36,0,0,0-.11.44.43.43,0,0,0,.45.11,3.68,3.68,0,0,0,0-6.15Z"/>
  <path class="cls-2"
        d="M85,196.74l-2.64-.28a3,3,0,0,1,.43-1.09,2.55,2.55,0,0,1,.81-.69,3.27,3.27,0,0,1,1.05-.32,8.06,8.06,0,0,1,1.44-.12,11.72,11.72,0,0,1,2,.14,2.62,2.62,0,0,1,1.26.58,2,2,0,0,1,.55.87,3,3,0,0,1,.21,1.07v3.19a4.2,4.2,0,0,0,.06.8,4.5,4.5,0,0,0,.28.73H87.83a2.67,2.67,0,0,1-.21-.42,3.37,3.37,0,0,1-.09-.46,3.52,3.52,0,0,1-1.08.75,4.5,4.5,0,0,1-1.71.3,2.86,2.86,0,0,1-2-.6,1.89,1.89,0,0,1-.67-1.48,1.94,1.94,0,0,1,.48-1.35,3.28,3.28,0,0,1,1.78-.79c1-.21,1.71-.35,2-.44a7.54,7.54,0,0,0,1-.33,1,1,0,0,0-.21-.71,1,1,0,0,0-.74-.2,2,2,0,0,0-1,.21A1.22,1.22,0,0,0,85,196.74Zm-1-5h1.77v1.7H83.92Zm3.45,6.41c-.38.13-.78.25-1.19.36a2.59,2.59,0,0,0-1.06.44.69.69,0,0,0,0,1,1,1,0,0,0,.67.21,1.69,1.69,0,0,0,.86-.22,1.44,1.44,0,0,0,.57-.55,1.88,1.88,0,0,0,.16-.84Zm-.57-6.41h1.79v1.7H86.8Z"/>
  <rect class="cls-3" x="112.6" y="149.23" width="24.92" height="15.68" rx="1.45"/>
  <path class="cls-4"
        d="M129.23,154.78l-1.15,1.16h-1.33a.31.31,0,0,0-.31.31v1.87a.3.3,0,0,0,.31.31h1.33l1.15,1.16a.32.32,0,0,0,.54-.22V155A.32.32,0,0,0,129.23,154.78Z"/>
  <path class="cls-4"
        d="M131.34,156.17a.42.42,0,0,0-.44.11.34.34,0,0,0,.16.44.56.56,0,0,1,.28.45.44.44,0,0,1-.28.44.37.37,0,0,0-.16.44.29.29,0,0,0,.44.11,1,1,0,0,0,.61-1A1.16,1.16,0,0,0,131.34,156.17Z"/>
  <path class="cls-4"
        d="M133.51,157.17a2.6,2.6,0,0,0-1.11-2.06.31.31,0,0,0-.39.17.26.26,0,0,0,.06.39,1.76,1.76,0,0,1,0,3,.34.34,0,0,0-.06.45.25.25,0,0,0,.39.11A2.38,2.38,0,0,0,133.51,157.17Z"/>
  <path class="cls-4"
        d="M133.45,154.13a.29.29,0,0,0-.44.11.24.24,0,0,0,.11.38,3,3,0,0,1,1.39,2.55,3,3,0,0,1-1.39,2.55.35.35,0,0,0-.11.45.44.44,0,0,0,.44.11,3.63,3.63,0,0,0,1.67-3.11A3.57,3.57,0,0,0,133.45,154.13Z"/>
  <path class="cls-2"
        d="M123.52,157.87H118a1.78,1.78,0,0,0,.36,1,1.27,1.27,0,0,0,1,.47,1.68,1.68,0,0,0,.78-.2,1.83,1.83,0,0,0,.48-.46l2.73.25a3.86,3.86,0,0,1-1.51,1.56,5.43,5.43,0,0,1-2.54.48,5.22,5.22,0,0,1-2.26-.41,3.39,3.39,0,0,1-1.36-1.28,3.89,3.89,0,0,1-.54-2.07,3.62,3.62,0,0,1,1.09-2.74,4.11,4.11,0,0,1,3-1.05,5.39,5.39,0,0,1,2.45.47,3.13,3.13,0,0,1,1.36,1.36,4.88,4.88,0,0,1,.47,2.32Zm-2.81-1.33a1.88,1.88,0,0,0-.43-1.14,1.23,1.23,0,0,0-.92-.35,1.25,1.25,0,0,0-1.06.52,1.94,1.94,0,0,0-.32,1Z"/>
  <rect class="cls-3" x="238.31" y="113.23" width="24.92" height="15.68" rx="1.45"/>
  <path class="cls-4"
        d="M254.21,118.66l-1.16,1.16h-1.32a.31.31,0,0,0-.32.31V122a.3.3,0,0,0,.32.31h1.32l1.16,1.16a.31.31,0,0,0,.53-.22v-4.37A.31.31,0,0,0,254.21,118.66Z"/>
  <path class="cls-4"
        d="M256.31,120.05a.44.44,0,0,0-.44.11.36.36,0,0,0,.17.45.56.56,0,0,1,.27.44.43.43,0,0,1-.27.44.38.38,0,0,0-.17.45.3.3,0,0,0,.44.11,1.05,1.05,0,0,0,.61-1A1.16,1.16,0,0,0,256.31,120.05Z"/>
  <path class="cls-4"
        d="M258.48,121.05a2.57,2.57,0,0,0-1.11-2,.31.31,0,0,0-.39.16.27.27,0,0,0,.06.39,1.77,1.77,0,0,1,0,3c-.11.11-.17.33-.06.44a.25.25,0,0,0,.39.11A2.37,2.37,0,0,0,258.48,121.05Z"/>
  <path class="cls-4"
        d="M258.43,118a.31.31,0,0,0-.45.11.25.25,0,0,0,.12.39,3,3,0,0,1,1.38,2.55,3,3,0,0,1-1.38,2.55.35.35,0,0,0-.12.44.44.44,0,0,0,.45.11,3.68,3.68,0,0,0,0-6.15Z"/>
  <path class="cls-2"
        d="M240.74,121.09a3.66,3.66,0,0,1,1.12-2.73,4.18,4.18,0,0,1,3-1.07,4.14,4.14,0,0,1,3.28,1.26,3.68,3.68,0,0,1,.89,2.5,3.62,3.62,0,0,1-1.11,2.73,4.19,4.19,0,0,1-3.05,1.06,4.3,4.3,0,0,1-2.82-.88A3.55,3.55,0,0,1,240.74,121.09Zm2.78,0a2.2,2.2,0,0,0,.39,1.43,1.23,1.23,0,0,0,1,.46,1.2,1.2,0,0,0,1-.46,2.22,2.22,0,0,0,.39-1.46,2.1,2.1,0,0,0-.39-1.39,1.2,1.2,0,0,0-1-.46,1.25,1.25,0,0,0-1,.46A2.19,2.19,0,0,0,243.52,121.08Z"/>
</svg>
