<svg width="14" height="4" viewBox="0 0 14 4" fill="none" xmlns="http://www.w3.org/2000/svg">
<path d="M8.75 1.96875C8.75 0.90234 7.84766 0 6.78125 0C5.6875 0 4.8125 0.90234 4.8125 1.96875C4.8125 3.0625 5.6875 3.9375 6.78125 3.9375C7.84766 3.9375 8.75 3.0625 8.75 1.96875ZM11.5938 0C10.5 0 9.625 0.90234 9.625 1.96875C9.625 3.0625 10.5 3.9375 11.5938 3.9375C12.6602 3.9375 13.5625 3.0625 13.5625 1.96875C13.5625 0.90234 12.6602 0 11.5938 0ZM1.96875 0C0.875 0 0 0.90234 0 1.96875C0 3.0625 0.875 3.9375 1.96875 3.9375C3.03516 3.9375 3.9375 3.0625 3.9375 1.96875C3.9375 0.90234 3.03516 0 1.96875 0Z" fill="#3F3F3F"/>
</svg>
