<svg width="10" height="14" viewBox="0 0 10 14" fill="none" xmlns="http://www.w3.org/2000/svg">
<path d="M4.8125 9.625C6.26172 9.625 7.4375 8.47656 7.4375 7V2.625C7.4375 1.17578 6.26172 0 4.8125 0C3.33594 0 2.1875 1.17578 2.1875 2.625V7C2.1875 8.47656 3.33594 9.625 4.8125 9.625ZM9.1875 5.25H8.75C8.50391 5.25 8.3125 5.46875 8.3125 5.6875V7C8.3125 9.05078 6.53516 10.6914 4.45703 10.5C2.625 10.3086 1.3125 8.69531 1.3125 6.86328V5.6875C1.3125 5.46875 1.09375 5.25 0.875 5.25H0.4375C0.191406 5.25 0 5.46875 0 5.6875V6.80859C0 9.24219 1.72266 11.4297 4.15625 11.7578V12.6875H2.625C2.37891 12.6875 2.1875 12.9062 2.1875 13.125V13.5625C2.1875 13.8086 2.37891 14 2.625 14H7C7.21875 14 7.4375 13.8086 7.4375 13.5625V13.125C7.4375 12.9062 7.21875 12.6875 7 12.6875H5.46875V11.7852C7.79297 11.457 9.625 9.4336 9.625 7V5.6875C9.625 5.46875 9.40625 5.25 9.1875 5.25Z" fill="#3F3F3F"/>
</svg>
