<svg width="10" height="15" viewBox="0 0 10 15" fill="none" xmlns="http://www.w3.org/2000/svg">
<path d="M5 10.375C6.44922 10.375 7.625 9.22656 7.625 7.75V3.375C7.625 1.92578 6.44922 0.75 5 0.75C3.52344 0.75 2.375 1.92578 2.375 3.375V7.75C2.375 9.22656 3.52344 10.375 5 10.375ZM9.375 6H8.9375C8.69141 6 8.5 6.21875 8.5 6.4375V7.75C8.5 9.80078 6.72266 11.4414 4.64453 11.25C2.8125 11.0586 1.5 9.44531 1.5 7.61328V6.4375C1.5 6.21875 1.28125 6 1.0625 6H0.625C0.378906 6 0.1875 6.21875 0.1875 6.4375V7.55859C0.1875 9.99219 1.91016 12.1797 4.34375 12.5078V13.4375H2.8125C2.56641 13.4375 2.375 13.6562 2.375 13.875V14.3125C2.375 14.5586 2.56641 14.75 2.8125 14.75H7.1875C7.40625 14.75 7.625 14.5586 7.625 14.3125V13.875C7.625 13.6562 7.40625 13.4375 7.1875 13.4375H5.65625V12.5352C7.98047 12.207 9.8125 10.1836 9.8125 7.75V6.4375C9.8125 6.21875 9.59375 6 9.375 6Z" fill="#3F3F3F"/>
</svg>
