<svg width="14" height="13" viewBox="0 0 14 13" fill="none" xmlns="http://www.w3.org/2000/svg">
<path d="M5.28906 2.1875L3.20312 4.25H0.8125C0.484375 4.25 0.25 4.50781 0.25 4.8125V8.1875C0.25 8.51562 0.484375 8.75 0.8125 8.75H3.20312L5.28906 10.8359C5.64062 11.1875 6.25 10.9531 6.25 10.4375V2.58594C6.25 2.07031 5.64062 1.83594 5.28906 2.1875ZM10.75 0.96875C10.4922 0.804688 10.1406 0.875 9.95312 1.13281C9.78906 1.41406 9.85938 1.76562 10.1172 1.92969C11.6875 2.9375 12.6016 4.67188 12.6016 6.52344C12.6016 8.35156 11.6875 10.0859 10.1172 11.0938C9.85938 11.2578 9.78906 11.6094 9.95312 11.8906C10.1172 12.125 10.4688 12.2188 10.75 12.0547C12.625 10.8125 13.75 8.75 13.75 6.5C13.75 4.27344 12.625 2.21094 10.75 0.96875ZM11.5 6.5C11.5 5.02344 10.7266 3.66406 9.48438 2.84375C9.22656 2.67969 8.875 2.75 8.71094 3.03125C8.54688 3.28906 8.61719 3.64062 8.875 3.80469C9.8125 4.39062 10.375 5.42188 10.375 6.5C10.375 7.60156 9.8125 8.63281 8.875 9.21875C8.61719 9.38281 8.54688 9.73438 8.71094 9.99219C8.85156 10.25 9.20312 10.3438 9.48438 10.1797C10.7266 9.35938 11.5 8 11.5 6.5ZM8.17188 4.71875C7.89062 4.55469 7.5625 4.64844 7.39844 4.92969C7.25781 5.21094 7.35156 5.53906 7.63281 5.70312C7.91406 5.86719 8.125 6.17188 8.125 6.5C8.125 6.85156 7.91406 7.15625 7.63281 7.32031C7.35156 7.48438 7.25781 7.8125 7.39844 8.09375C7.5625 8.375 7.89062 8.46875 8.17188 8.30469C8.82812 7.95312 9.25 7.25 9.25 6.5C9.25 5.77344 8.82812 5.07031 8.17188 4.71875Z" fill="#3F3F3F"/>
</svg>
