<svg width="12" height="10" viewBox="0 0 12 10" fill="none" xmlns="http://www.w3.org/2000/svg">
<path d="M5.29995 0.200007L3.19995 2.20001H0.799951C0.499951 2.20001 0.199951 2.50001 0.199951 2.80001V6.20001C0.199951 6.50001 0.399951 6.80001 0.799951 6.80001H3.19995L5.29995 8.90001C5.69995 9.30001 6.29995 9.00001 6.29995 8.50001V0.600007C6.19995 0.100007 5.59995 -0.199993 5.29995 0.200007ZM11.5 4.50001C11.5 3.00001 10.7 1.70001 9.49995 0.800007C9.19995 0.700007 8.89995 0.700007 8.69995 1.00001C8.49995 1.30001 8.59995 1.60001 8.89995 1.80001C9.79995 2.40001 10.4 3.40001 10.4 4.50001C10.4 5.60001 9.79995 6.60001 8.89995 7.20001C8.59995 7.40001 8.49995 7.70001 8.69995 8.00001C8.79995 8.30001 9.19995 8.40001 9.49995 8.20001C10.7 7.40001 11.5 6.00001 11.5 4.50001ZM8.19995 2.70001C7.89995 2.60001 7.59995 2.60001 7.39995 2.90001C7.29995 3.20001 7.39995 3.50001 7.59995 3.70001C7.89995 3.90001 8.09995 4.20001 8.09995 4.50001C8.09995 4.90001 7.89995 5.20001 7.59995 5.30001C7.39995 5.50001 7.29995 5.80001 7.39995 6.10001C7.59995 6.40001 7.89995 6.50001 8.19995 6.30001C8.79995 6.00001 9.19995 5.20001 9.19995 4.50001C9.19995 3.80001 8.79995 3.10001 8.19995 2.70001Z" fill="#3F3F3F"/>
</svg>
