<svg width="9" height="9" viewBox="0 0 9 9" fill="none" xmlns="http://www.w3.org/2000/svg">
<path d="M5.03906 0.167577L2.95312 2.23008H0.5625C0.234375 2.23008 0 2.48789 0 2.79258V6.16758C0 6.4957 0.234375 6.73008 0.5625 6.73008H2.95312L5.03906 8.81602C5.39062 9.16758 6 8.9332 6 8.41758V0.566014C6 0.0503891 5.39062 -0.183986 5.03906 0.167577ZM7.92188 2.69883C7.64062 2.53476 7.3125 2.62852 7.14844 2.90976C7.00781 3.19102 7.10156 3.51914 7.38281 3.6832C7.66406 3.84726 7.875 4.15195 7.875 4.48008C7.875 4.83164 7.66406 5.13633 7.38281 5.30039C7.10156 5.46445 7.00781 5.79258 7.14844 6.07383C7.3125 6.35508 7.64062 6.44883 7.92188 6.28476C8.57812 5.9332 9 5.23008 9 4.48008C9 3.75352 8.57812 3.05039 7.92188 2.69883Z" fill="#3F3F3F"/>
</svg>
